<svg width="954" height="146" viewBox="0 0 954 146" fill="none" xmlns="http://www.w3.org/2000/svg">
<g clip-path="url(#clip0_614_2)">
<path d="M72.9966 145.799C63.1691 145.799 53.6368 143.874 44.6604 140.077C35.9921 136.41 28.2063 131.162 21.5225 124.476C14.8373 117.791 9.58927 110.006 5.92233 101.337C2.12564 92.3606 0.200928 82.8278 0.200928 72.9999C0.200928 63.172 2.12564 53.6392 5.92233 44.6625C9.58927 35.9937 14.8373 28.2076 21.5225 21.5235C28.2077 14.838 35.9921 9.5897 44.6604 5.92259C53.6368 2.12573 63.1691 0.200928 72.9966 0.200928C82.824 0.200928 92.3564 2.12573 101.333 5.92259C110.001 9.5897 117.787 14.838 124.471 21.5235C131.156 28.209 136.405 35.9937 140.071 44.6625C143.867 53.6378 145.792 63.172 145.792 72.9999C145.792 82.8278 143.867 92.3606 140.071 101.337C136.404 110.006 131.156 117.792 124.471 124.476C117.785 131.16 110.001 136.412 101.333 140.077C92.3578 143.874 82.824 145.799 72.9966 145.799ZM72.9966 1.91187C33.8008 1.91187 1.91179 33.8023 1.91179 72.9999C1.91179 112.197 33.8008 144.088 72.9966 144.088C112.192 144.088 144.081 112.197 144.081 72.9999C144.081 33.8023 112.192 1.91187 72.9966 1.91187ZM72.9837 123.993C66.0932 123.993 59.4081 122.643 53.1135 119.981C47.0343 117.41 41.5752 113.729 36.8889 109.041C32.2011 104.353 28.5213 98.8935 25.9494 92.8154C23.2875 86.522 21.9374 79.8365 21.9374 72.9443C21.9374 66.0521 23.2875 59.368 25.9494 53.0732C28.5199 46.9936 32.2011 41.5343 36.8889 36.8478C41.5766 32.1598 47.0357 28.4799 53.1135 25.9078C59.4066 23.2458 66.0918 21.8956 72.9837 21.8956C79.8756 21.8956 86.5594 23.2458 92.8539 25.9078C98.9332 28.4785 104.392 32.1598 109.08 36.8478C113.768 41.5358 117.448 46.9951 120.02 53.0732C122.681 59.3666 124.031 66.0521 124.031 72.9443C124.031 79.8365 122.681 86.5206 120.02 92.8154C117.449 98.8949 113.768 104.353 109.08 109.041C104.392 113.729 98.9332 117.41 92.8539 119.981C86.5608 122.643 79.8756 123.993 72.9837 123.993ZM72.9837 23.6066C45.7796 23.6066 23.6482 45.739 23.6482 72.9443C23.6482 100.15 45.7796 122.282 72.9837 122.282C100.188 122.282 122.319 100.15 122.319 72.9443C122.319 45.739 100.188 23.6066 72.9837 23.6066Z" fill="#888888"/>
<path d="M23.8508 97.3338C23.8936 97.4393 23.8922 97.5434 23.848 97.6461C23.8038 97.7487 23.7296 97.8214 23.6241 97.8642L13.3846 101.98C13.2692 102.027 13.1608 102.027 13.0567 101.985C12.9541 101.941 12.8814 101.866 12.8386 101.761L12.351 100.55C12.2925 100.404 12.2826 100.282 12.3239 100.187C12.3653 100.091 12.3966 100.027 12.4194 99.9929L17.6447 92.6302L10.7399 95.4062C10.6245 95.4532 10.5161 95.4561 10.4163 95.4176C10.3151 95.3791 10.2424 95.3021 10.1953 95.1866L9.66353 93.8649C9.61648 93.7494 9.61648 93.641 9.65925 93.537C9.70345 93.4343 9.78329 93.3587 9.89734 93.3131L20.1212 89.2026C20.2366 89.1555 20.3464 89.1555 20.4491 89.1983C20.5517 89.2425 20.6244 89.3167 20.6672 89.4222L21.1605 90.6483C21.219 90.7952 21.2247 90.915 21.1776 91.0076C21.1291 91.1003 21.102 91.1659 21.0935 91.2058L16.0194 98.4901L22.783 95.7712C22.8885 95.7284 22.9925 95.7298 23.0952 95.774C23.1978 95.8182 23.2734 95.8981 23.319 96.0121L23.8508 97.3338Z" fill="#888888"/>
<path d="M20.0613 87.1338C20.0827 87.245 20.0627 87.3462 20.0014 87.4389C19.9387 87.5316 19.8531 87.5886 19.7419 87.6114L8.91503 89.7501C8.79384 89.7743 8.68549 89.7558 8.59282 89.693C8.50014 89.6303 8.44312 89.5448 8.4203 89.4336L6.97463 82.115C6.95039 81.9938 6.97035 81.8855 7.03166 81.7928C7.09439 81.7001 7.18563 81.6417 7.30825 81.6174L8.40605 81.4007C8.51725 81.3793 8.61848 81.3993 8.71115 81.4606C8.80382 81.5233 8.86228 81.6146 8.88651 81.7372L9.96721 87.2093L12.9113 86.6276L11.9033 81.5219C11.8791 81.3993 11.8962 81.2923 11.9518 81.2011C12.0088 81.1098 12.0986 81.0514 12.2198 81.0271L13.2506 80.8233C13.3732 80.799 13.4773 80.819 13.5643 80.8817C13.6513 80.9459 13.7069 81.0371 13.7311 81.1597L14.7391 86.2655L17.783 85.6638L16.6766 80.059C16.6524 79.9378 16.6723 79.8295 16.7337 79.7368C16.7964 79.6441 16.8876 79.5857 17.0102 79.5614L18.108 79.3447C18.2192 79.3233 18.3205 79.3433 18.4131 79.4046C18.5058 79.4673 18.5643 79.5586 18.5885 79.6812L20.0598 87.1323L20.0613 87.1338Z" fill="#888888"/>
<path d="M18.2776 76.4348C18.2748 76.6045 18.2249 76.7371 18.1265 76.8312C18.0295 76.9253 17.9069 76.988 17.7587 77.0208L6.86191 78.8615C6.82769 78.8615 6.8006 78.8629 6.77636 78.8686C6.75355 78.8743 6.73644 78.8758 6.72504 78.8758C6.62381 78.8743 6.5397 78.8358 6.47269 78.7617C6.40568 78.6875 6.37289 78.6049 6.37431 78.5136L6.39855 77.0222C6.40283 76.7399 6.51831 76.5831 6.745 76.5532L14.4453 75.2714L9.50376 73.6659C9.41394 73.6303 9.32127 73.5704 9.22717 73.4835C9.13307 73.3965 9.08602 73.2696 9.08888 73.0999L9.10313 72.1846C9.10598 72.0035 9.15588 71.8752 9.25283 71.7967C9.34978 71.7198 9.44388 71.6699 9.53512 71.6485L14.5094 70.1856L6.87046 68.6543C6.6452 68.6173 6.53399 68.4561 6.5397 68.1738L6.56393 66.6825C6.56393 66.5926 6.601 66.5128 6.66944 66.4472C6.73787 66.3816 6.82341 66.3474 6.92464 66.3503C6.93604 66.3503 6.95315 66.3503 6.97596 66.3503C6.99878 66.3503 7.02729 66.3574 7.06008 66.3688L17.8927 68.5617C18.0395 68.5873 18.1593 68.6501 18.2548 68.7541C18.3489 68.8568 18.3945 68.9937 18.3917 69.1633L18.3731 70.2983C18.3703 70.4679 18.3232 70.6005 18.2306 70.6946C18.1393 70.7887 18.0409 70.8529 17.9397 70.8842L12.2483 72.6907L17.8784 74.6811C17.9796 74.7282 18.0752 74.798 18.1636 74.8893C18.252 74.9819 18.2961 75.1174 18.2919 75.2985L18.2733 76.4348H18.2776Z" fill="#888888"/>
<path d="M19.1758 62.0998C19.1402 62.2196 19.0732 62.3051 18.9734 62.3579C18.875 62.4107 18.7709 62.4206 18.664 62.3878L8.098 59.2012C7.97967 59.1656 7.8927 59.0986 7.83995 58.9988C7.78719 58.9004 7.77864 58.792 7.81428 58.6723L8.20065 57.3905C8.24627 57.2393 8.32184 57.1381 8.42591 57.0868C8.52999 57.0355 8.60698 57.0055 8.65688 56.997L15.4447 55.6268L10.5559 50.6993C10.5189 50.6651 10.4718 50.5966 10.4134 50.4968C10.3549 50.397 10.3492 50.2715 10.3948 50.119L10.7769 48.8529C10.8126 48.7346 10.8796 48.6476 10.9794 48.5948C11.0777 48.5421 11.1875 48.5335 11.3059 48.5692L21.8718 51.7558C21.9802 51.7886 22.0615 51.8542 22.1142 51.9525C22.167 52.0509 22.1755 52.1607 22.1399 52.2791L21.7293 53.6421C21.6936 53.7619 21.6266 53.8446 21.5297 53.8916C21.4327 53.9387 21.3301 53.9472 21.2217 53.9144L14.1944 51.7943L17.8428 55.373C17.924 55.4571 17.9868 55.5526 18.031 55.6596C18.0752 55.7679 18.0766 55.892 18.0338 56.0317L17.8328 56.6975C17.7872 56.8487 17.7173 56.9542 17.6218 57.0141C17.5277 57.074 17.4222 57.1167 17.3096 57.141L12.291 58.1062L19.3184 60.2264C19.4267 60.2591 19.508 60.3247 19.5608 60.4231C19.6135 60.5215 19.6235 60.6256 19.5907 60.7339L19.1801 62.097L19.1758 62.0998Z" fill="#888888"/>
<path d="M25.2636 46.6943C24.7774 47.5755 24.2128 48.2513 23.5713 48.7232C22.9297 49.1951 22.2069 49.4404 21.4013 49.4603C20.5958 49.4803 19.7304 49.2536 18.8037 48.7802C18.3731 48.555 17.9497 48.3283 17.5348 48.0987C17.1199 47.8692 16.6965 47.6296 16.2673 47.3787C15.3834 46.8512 14.7418 46.2381 14.3398 45.5394C13.9391 44.8408 13.7609 44.0866 13.8065 43.2796C13.8522 42.4726 14.1102 41.6428 14.5807 40.793C15.0512 39.9418 15.6172 39.2803 16.2787 38.8069C16.9403 38.3335 17.6745 38.0812 18.48 38.0484C19.2856 38.0156 20.1467 38.2337 21.0634 38.7014C21.5097 38.9224 21.9402 39.1477 22.3551 39.3772C22.77 39.6068 23.1863 39.8491 23.5998 40.1044C24.4937 40.6376 25.1453 41.2493 25.5573 41.9422C25.9693 42.6351 26.1447 43.3808 26.0834 44.1792C26.0221 44.9791 25.7498 45.8189 25.2622 46.6986L25.2636 46.6943ZM23.557 45.7519C23.912 45.1089 24.0118 44.4801 23.855 43.8627C23.6982 43.2468 23.1977 42.6864 22.3537 42.1803C21.9288 41.9194 21.5325 41.687 21.1604 41.4817C20.7897 41.2764 20.3862 41.0668 19.9499 40.8515C19.3654 40.5549 18.8393 40.4023 18.3717 40.3952C17.904 40.3881 17.4991 40.5036 17.1541 40.7403C16.8105 40.9769 16.5211 41.3077 16.2859 41.7326C16.0563 42.1475 15.9323 42.5638 15.9152 42.9802C15.8981 43.3965 16.0164 43.8014 16.2716 44.1935C16.5268 44.5856 16.9346 44.9506 17.4977 45.2871C17.9183 45.5323 18.3132 45.7562 18.6839 45.9615C19.0546 46.1668 19.4609 46.3849 19.9015 46.6145C20.7783 47.0607 21.5197 47.1862 22.1242 46.9909C22.7287 46.7955 23.2063 46.3821 23.5556 45.749L23.557 45.7519Z" fill="#888888"/>
<path d="M28.4401 41.0468C28.3674 41.1338 28.2747 41.1809 28.1635 41.1908C28.0523 41.2008 27.9525 41.168 27.867 41.0953L19.4296 33.9807C19.3341 33.9008 19.2827 33.8053 19.2727 33.6927C19.2628 33.5814 19.2956 33.4816 19.3683 33.3961L20.2094 32.398C20.3107 32.2769 20.4147 32.2127 20.5174 32.2027C20.6215 32.1942 20.6928 32.1913 20.7327 32.197L29.6862 33.3604L23.9961 28.5627C23.9006 28.4829 23.8464 28.3888 23.8336 28.2818C23.8208 28.1749 23.8536 28.0737 23.9348 27.9781L24.853 26.8888C24.9328 26.7933 25.0284 26.742 25.141 26.732C25.2522 26.7234 25.3563 26.7577 25.4504 26.8375L33.8749 33.9407C33.9705 34.0206 34.0218 34.1175 34.0318 34.2288C34.0417 34.34 34.0089 34.4398 33.9362 34.5253L33.0837 35.5362C32.981 35.6574 32.8784 35.7187 32.7743 35.7187C32.6702 35.7187 32.5989 35.7258 32.559 35.7372L23.7466 34.6707L29.3198 39.3701C29.4067 39.4428 29.4538 39.5355 29.4638 39.6467C29.4737 39.7579 29.4381 39.862 29.3583 39.9561L28.4401 41.0454V41.0468Z" fill="#888888"/>
<path d="M38.9904 30.419C38.1777 31.0692 37.375 31.4798 36.5795 31.6523C35.7839 31.8248 35.0169 31.7707 34.2769 31.4869C33.537 31.2032 32.8569 30.7013 32.2367 29.9813C31.9245 29.6092 31.5937 29.2043 31.2444 28.768C30.8951 28.3317 30.5701 27.9153 30.2678 27.519C29.7089 26.7647 29.3768 26.0034 29.2741 25.232C29.1715 24.4607 29.2955 23.7022 29.6476 22.9579C29.9998 22.2136 30.5729 21.5236 31.3671 20.8877C32.0115 20.373 32.6445 20.0065 33.2675 19.7898C33.8906 19.5745 34.4708 19.4719 35.0083 19.4833C35.5458 19.4947 36.0192 19.5902 36.4298 19.7684C36.8404 19.9467 37.1555 20.1648 37.3764 20.4229C37.4492 20.4956 37.4791 20.5797 37.4691 20.6738C37.4577 20.7693 37.4092 20.852 37.3208 20.9233L35.9579 22.014C35.8695 22.0853 35.7896 22.1195 35.7169 22.1195C35.6442 22.1195 35.5629 22.0982 35.4703 22.0554C35.2507 21.9271 34.9941 21.8315 34.7004 21.7702C34.4053 21.7103 34.0816 21.7203 33.7266 21.8002C33.3716 21.8814 32.9909 22.0839 32.586 22.409C31.9858 22.8895 31.6337 23.4313 31.531 24.0344C31.4284 24.6375 31.6565 25.3161 32.2154 26.0704C32.8028 26.8588 33.4244 27.6359 34.0788 28.4001C34.7047 29.1287 35.332 29.5108 35.9593 29.5436C36.5866 29.5778 37.2011 29.354 37.8013 28.8735C38.1991 28.5555 38.4971 28.2005 38.6981 27.8098C38.8977 27.4178 38.969 27 38.9105 26.5552C38.8521 26.1103 38.6354 25.6541 38.2604 25.1864L37.9325 24.7758L36.3171 26.0675C36.2287 26.1388 36.1289 26.1673 36.0177 26.1545C35.9065 26.1431 35.8124 26.0875 35.734 25.9905L35.1723 25.2891C35.0953 25.1921 35.0625 25.088 35.0739 24.9768C35.0867 24.8656 35.1366 24.7744 35.225 24.7045L38.3887 22.1737C38.4857 22.0967 38.5883 22.0654 38.6938 22.0811C38.8007 22.0967 38.8934 22.1538 38.9704 22.2507L40.0825 23.6409C40.6756 24.3823 41.0263 25.1508 41.1346 25.9463C41.243 26.7419 41.1161 27.5247 40.754 28.2918C40.3918 29.0588 39.803 29.7689 38.9918 30.4176L38.9904 30.419Z" fill="#888888"/>
<path d="M47.8797 24.6276C46.9872 25.0924 46.1432 25.3433 45.3477 25.3804C44.5521 25.4189 43.8136 25.2236 43.1321 24.7944C42.4506 24.3653 41.8547 23.698 41.3443 22.7912C41.1104 22.3649 40.8838 21.9414 40.6642 21.5208C40.4446 21.1002 40.2265 20.6668 40.0069 20.2191C39.5621 19.2909 39.3668 18.4254 39.4195 17.6199C39.4723 16.8157 39.7418 16.09 40.2265 15.4427C40.7112 14.7954 41.3842 14.2479 42.2467 13.7988C43.1093 13.3497 43.9462 13.1116 44.7603 13.083C45.5744 13.0545 46.3243 13.2499 47.0143 13.669C47.703 14.0882 48.3003 14.7455 48.805 15.6423C49.0545 16.0729 49.2884 16.4992 49.5079 16.9198C49.7275 17.3404 49.9385 17.7724 50.1424 18.2144C50.5929 19.1526 50.7968 20.0237 50.7568 20.8279C50.7169 21.632 50.4503 22.3506 49.957 22.9822C49.4637 23.6139 48.7722 24.1628 47.8797 24.6276ZM46.9801 22.8981C47.6317 22.5588 48.0622 22.0897 48.2732 21.4895C48.4828 20.8892 48.3773 20.1464 47.9525 19.2581C47.7429 18.8061 47.5404 18.3927 47.3451 18.0162C47.1498 17.6398 46.9288 17.2421 46.685 16.8214C46.3628 16.2511 46.0078 15.8334 45.6228 15.5682C45.2365 15.3044 44.8358 15.1747 44.4181 15.1818C44.0018 15.1889 43.5769 15.3044 43.1464 15.5283C42.7258 15.7478 42.3922 16.0259 42.1469 16.3638C41.9017 16.7017 41.7777 17.1037 41.772 17.5714C41.7663 18.0391 41.906 18.5695 42.1883 19.1612C42.4021 19.5974 42.6074 20.0038 42.8028 20.3802C42.9981 20.7566 43.2162 21.1629 43.4557 21.5978C43.9391 22.4547 44.488 22.9694 45.0996 23.1405C45.7112 23.313 46.3385 23.2318 46.9801 22.8981Z" fill="#888888"/>
<path d="M53.7609 21.7175C53.6525 21.7503 53.5499 21.7417 53.4501 21.689C53.3517 21.6362 53.2847 21.5564 53.2519 21.4494L49.9827 10.8915C49.9499 10.7832 49.9585 10.6805 50.0112 10.5807C50.064 10.4823 50.1438 10.4153 50.2507 10.3825L51.7563 9.9163C51.8647 9.88351 51.9673 9.89207 52.0671 9.94482C52.1655 9.99757 52.2325 10.0774 52.2653 10.1844L55.0583 19.2038L60.1908 17.6141C60.3092 17.577 60.419 17.5856 60.5173 17.6369C60.6157 17.6897 60.6841 17.7752 60.7212 17.8936L61.0719 19.027C61.1061 19.1354 61.0962 19.2381 61.0434 19.3379C60.9907 19.4377 60.9051 19.5047 60.7868 19.5418L53.7594 21.7175H53.7609Z" fill="#888888"/>
<path d="M69.036 18.6493C67.9881 18.7249 67.0999 18.6322 66.3728 18.3727C65.6457 18.1132 65.0811 17.7454 64.6791 17.2706C64.277 16.7958 64.0446 16.2825 63.9819 15.7322C63.9747 15.631 64.0018 15.544 64.0646 15.4713C64.1273 15.3986 64.21 15.3586 64.3112 15.3515L65.8153 15.2431C65.9622 15.2332 66.0734 15.256 66.1518 15.313C66.2288 15.37 66.3001 15.4413 66.3628 15.5269C66.4455 15.7365 66.5909 15.9389 66.7977 16.1328C67.0044 16.3282 67.2781 16.4807 67.6203 16.5919C67.9625 16.7031 68.3873 16.7402 68.8949 16.7046C69.7061 16.6461 70.3021 16.4679 70.6827 16.1685C71.0634 15.8691 71.2373 15.4884 71.2046 15.0264C71.1817 14.6999 71.0549 14.4447 70.8267 14.2636C70.5986 14.0826 70.255 13.9257 69.7988 13.7931C69.3411 13.662 68.7409 13.5322 67.9953 13.4039C67.1356 13.2613 66.4099 13.0674 65.8211 12.8207C65.2308 12.5741 64.7774 12.2419 64.4581 11.8227C64.1387 11.4035 63.9548 10.856 63.9063 10.1802C63.8593 9.52719 63.9947 8.93264 64.3141 8.40082C64.6334 7.86758 65.111 7.43129 65.7498 7.09053C66.3885 6.74977 67.1641 6.54731 68.0765 6.48172C68.8093 6.42897 69.4638 6.48172 70.0426 6.63856C70.62 6.79539 71.1062 7.02066 71.5011 7.3158C71.896 7.61094 72.2054 7.93459 72.4292 8.28533C72.6531 8.6375 72.7828 8.98824 72.8185 9.33613C72.8242 9.42596 72.7999 9.51008 72.7429 9.5885C72.6859 9.66691 72.6018 9.70969 72.4891 9.71682L70.9166 9.82945C70.8267 9.83658 70.7341 9.81947 70.6414 9.78098C70.5473 9.74248 70.4689 9.66264 70.4033 9.54287C70.3106 9.19783 70.0697 8.91553 69.679 8.69453C69.2898 8.47354 68.8008 8.38371 68.2148 8.42506C67.606 8.46926 67.1242 8.61611 66.7677 8.86848C66.4113 9.12084 66.2516 9.48299 66.2844 9.95635C66.3072 10.2714 66.4184 10.5281 66.6194 10.722C66.8205 10.9173 67.1327 11.0784 67.5547 11.2068C67.9767 11.3351 68.5328 11.4648 69.2228 11.5974C70.1966 11.7429 70.9978 11.9353 71.6266 12.1734C72.2553 12.4115 72.7258 12.738 73.0394 13.1515C73.3517 13.565 73.5327 14.1054 73.5798 14.7698C73.6325 15.514 73.4786 16.1628 73.1164 16.7146C72.7543 17.2678 72.2211 17.7112 71.5211 18.0448C70.8196 18.3784 69.9898 18.5795 69.0318 18.6479L69.036 18.6493Z" fill="#888888"/>
<path d="M77.6544 18.5279C77.5417 18.5165 77.4505 18.468 77.3792 18.3811C77.3079 18.2941 77.278 18.1957 77.2894 18.0831L78.2104 8.75419L75.0895 8.44622C74.9769 8.43481 74.8856 8.38633 74.8143 8.29936C74.7431 8.21239 74.7131 8.11401 74.7245 8.00137L74.8486 6.75239C74.86 6.62835 74.9099 6.53139 74.9968 6.4601C75.0838 6.38882 75.1822 6.35887 75.2948 6.37028L83.899 7.22005C84.023 7.23145 84.12 7.28135 84.1913 7.36833C84.2626 7.4553 84.2911 7.55938 84.2797 7.68342L84.1571 8.93241C84.1457 9.04505 84.0972 9.1363 84.0102 9.20758C83.9232 9.27887 83.8192 9.30739 83.6951 9.29598L80.5914 8.98944L79.6703 18.3183C79.6589 18.431 79.6105 18.5222 79.5235 18.5935C79.4365 18.6648 79.3324 18.6933 79.2084 18.6819L77.6558 18.5279H77.6544Z" fill="#888888"/>
<path d="M88.2762 20.6766C87.3324 20.4015 86.5596 20.0022 85.958 19.4804C85.3563 18.9586 84.9628 18.3084 84.7775 17.5299C84.5921 16.7515 84.6506 15.8418 84.9543 14.801L86.8847 8.17682C86.9189 8.05705 86.9859 7.9715 87.0843 7.91733C87.1827 7.86315 87.2853 7.85174 87.3937 7.88453L88.875 8.31654C88.9947 8.35076 89.0774 8.41777 89.1259 8.5133C89.1744 8.61025 89.1815 8.71719 89.1459 8.83695L87.2154 15.4611C86.956 16.3508 86.9759 17.0723 87.2739 17.624C87.5719 18.1758 88.0894 18.5594 88.8279 18.7746C89.565 18.9899 90.2052 18.9443 90.7484 18.6363C91.2901 18.3298 91.6922 17.731 91.9517 16.8413L93.8807 10.2171C93.9149 10.0973 93.9819 10.0118 94.0803 9.95762C94.1786 9.90344 94.287 9.89346 94.4068 9.9291L95.871 10.3554C95.9907 10.3896 96.0734 10.4566 96.1219 10.5522C96.1704 10.6491 96.1775 10.7561 96.1419 10.8758L94.2114 17.5C93.9078 18.5422 93.4715 19.3421 92.9026 19.8996C92.3338 20.4585 91.658 20.7964 90.8767 20.9162C90.094 21.0359 89.2257 20.9561 88.2705 20.6781L88.2762 20.6766Z" fill="#888888"/>
<path d="M94.5848 22.5858C94.485 22.533 94.418 22.4532 94.3852 22.3462C94.351 22.2393 94.3609 22.1366 94.4137 22.0354L99.5363 12.2603C99.5933 12.1505 99.676 12.0778 99.7829 12.045C99.8899 12.0122 99.9925 12.0207 100.094 12.0735L103.758 13.994C104.769 14.5244 105.52 15.1161 106.013 15.7705C106.507 16.425 106.76 17.145 106.776 17.9306C106.792 18.7176 106.574 19.5531 106.122 20.44C105.911 20.8905 105.717 21.2869 105.539 21.6262C105.36 21.967 105.148 22.3462 104.903 22.7668C104.395 23.6879 103.822 24.3666 103.185 24.8043C102.547 25.242 101.827 25.4402 101.028 25.396C100.228 25.3532 99.3267 25.0695 98.3259 24.5448L94.5876 22.5858H94.5848ZM97.2167 21.7645L99.1528 22.7797C99.7131 23.0734 100.211 23.2316 100.646 23.2559C101.079 23.2801 101.472 23.1575 101.825 22.888C102.175 22.62 102.509 22.1965 102.823 21.6219C102.989 21.3268 103.135 21.0673 103.259 20.8449C103.381 20.6225 103.5 20.3972 103.612 20.1691C103.725 19.9409 103.853 19.68 103.995 19.3835C104.405 18.5522 104.516 17.8393 104.331 17.2434C104.146 16.6488 103.627 16.1284 102.776 15.6821L100.914 14.7069L97.2152 21.7645H97.2167Z" fill="#888888"/>
<path d="M104.039 27.8626C103.95 27.7927 103.899 27.7014 103.886 27.5902C103.873 27.479 103.902 27.3792 103.972 27.2908L110.807 18.6263C110.884 18.5294 110.978 18.4738 111.089 18.4595C111.2 18.4467 111.3 18.4752 111.388 18.5451L117.244 23.1646C117.341 23.2416 117.396 23.3357 117.411 23.4469C117.423 23.5581 117.392 23.6622 117.315 23.7606L116.622 24.6389C116.552 24.7273 116.461 24.7786 116.35 24.7914C116.239 24.8043 116.135 24.7729 116.036 24.6959L111.658 21.2412L109.799 23.5966L113.885 26.8203C113.982 26.8973 114.039 26.9886 114.056 27.0955C114.073 27.2024 114.042 27.3037 113.965 27.402L113.313 28.2276C113.236 28.3259 113.143 28.3787 113.037 28.3872C112.928 28.3958 112.827 28.3616 112.729 28.2846L108.642 25.0609L106.721 27.4961L111.206 31.0349C111.303 31.1119 111.358 31.206 111.373 31.3172C111.386 31.4284 111.354 31.5325 111.277 31.6309L110.584 32.5092C110.514 32.5976 110.423 32.6489 110.312 32.6617C110.201 32.6746 110.097 32.6432 109.998 32.5662L104.036 27.8626H104.039Z" fill="#888888"/>
<path d="M111.373 33.8451C111.298 33.7596 111.264 33.6612 111.273 33.55C111.28 33.4388 111.327 33.3461 111.411 33.2706L119.722 26.009C119.816 25.9278 119.918 25.8907 120.03 25.8978C120.141 25.905 120.233 25.952 120.309 26.0361L121.167 27.0199C121.271 27.1383 121.32 27.2509 121.313 27.3536C121.306 27.4576 121.297 27.5289 121.286 27.5674L118.778 36.2405L124.382 31.3443C124.476 31.263 124.576 31.2231 124.684 31.226C124.793 31.2288 124.887 31.2773 124.97 31.3714L125.906 32.4436C125.988 32.5377 126.025 32.6404 126.018 32.7516C126.01 32.8628 125.959 32.9597 125.866 33.0424L117.569 40.2925C117.475 40.3738 117.372 40.4109 117.261 40.4037C117.15 40.3966 117.055 40.3496 116.981 40.2654L116.112 39.2702C116.008 39.1505 115.963 39.0393 115.978 38.9366C115.992 38.8339 115.998 38.7612 115.992 38.7213L118.383 30.1723L112.894 34.9687C112.808 35.0428 112.71 35.077 112.599 35.0685C112.487 35.0613 112.391 35.01 112.308 34.9173L111.371 33.8451H111.373Z" fill="#888888"/>
<path d="M119.653 44.4945C119.596 44.3975 119.581 44.2949 119.609 44.1865C119.636 44.0781 119.699 43.9954 119.796 43.937L127.86 39.1563L126.26 36.4588C126.203 36.3618 126.187 36.2592 126.216 36.1508C126.243 36.0424 126.306 35.9597 126.403 35.9013L127.482 35.2611C127.589 35.1984 127.696 35.1798 127.806 35.2069C127.914 35.234 127.997 35.2968 128.055 35.3937L132.463 42.832C132.526 42.9389 132.545 43.0459 132.518 43.1542C132.489 43.2626 132.422 43.3481 132.315 43.4123L131.236 44.0525C131.139 44.1095 131.036 44.1252 130.928 44.0967C130.82 44.0696 130.734 44.0011 130.67 43.8942L129.079 41.2109L121.015 45.9915C120.918 46.0486 120.815 46.0643 120.707 46.0357C120.599 46.0086 120.513 45.9402 120.449 45.8333L119.653 44.4916V44.4945Z" fill="#888888"/>
<path d="M125.191 57.2922C124.907 56.3512 124.821 55.4858 124.933 54.6973C125.044 53.9088 125.375 53.2245 125.926 52.6456C126.478 52.0667 127.274 51.6205 128.313 51.3082L134.92 49.3221C135.038 49.2865 135.148 49.295 135.246 49.3478C135.345 49.4005 135.41 49.4818 135.443 49.5901L135.888 51.0673C135.923 51.1856 135.913 51.2925 135.859 51.3852C135.805 51.4779 135.718 51.5435 135.598 51.5791L128.992 53.5652C128.103 53.8318 127.51 54.241 127.209 54.7914C126.909 55.3417 126.869 55.9848 127.091 56.7219C127.312 57.4576 127.698 57.9695 128.252 58.2575C128.805 58.5455 129.525 58.5569 130.412 58.2888L137.018 56.3027C137.137 56.2671 137.247 56.2756 137.345 56.3284C137.443 56.3811 137.51 56.4667 137.546 56.5865L137.985 58.0479C138.021 58.1662 138.011 58.2732 137.957 58.3658C137.902 58.4585 137.815 58.5241 137.696 58.5597L131.089 60.5458C130.05 60.8581 129.141 60.928 128.363 60.754C127.584 60.5815 126.933 60.198 126.407 59.6077C125.881 59.016 125.474 58.2446 125.189 57.2922H125.191Z" fill="#888888"/>
<path d="M127.024 63.6226C127.014 63.51 127.044 63.4102 127.115 63.3246C127.187 63.2391 127.279 63.1906 127.392 63.1792L138.38 62.1569C138.504 62.1455 138.608 62.1754 138.695 62.2467C138.781 62.318 138.829 62.4107 138.84 62.5233L138.962 63.8236C138.976 63.9805 138.95 64.1002 138.885 64.1801C138.818 64.2599 138.769 64.3127 138.738 64.3383L131.628 69.9032L139.037 69.2145C139.161 69.2031 139.265 69.2302 139.351 69.2958C139.436 69.3614 139.485 69.4569 139.496 69.5809L139.627 70.9982C139.639 71.1222 139.609 71.2263 139.538 71.3133C139.466 71.3988 139.368 71.4487 139.245 71.4601L128.274 72.481C128.15 72.4924 128.045 72.4624 127.959 72.3912C127.874 72.3199 127.825 72.2272 127.814 72.1146L127.691 70.7986C127.677 70.6403 127.706 70.5248 127.778 70.4492C127.851 70.3751 127.897 70.3195 127.917 70.2839L134.86 64.7518L127.601 65.4262C127.489 65.4362 127.389 65.4063 127.304 65.335C127.218 65.2637 127.168 65.1653 127.157 65.0427L127.026 63.6255L127.024 63.6226Z" fill="#888888"/>
<path d="M127.634 74.7622C127.64 74.6496 127.683 74.5555 127.766 74.4799C127.848 74.4043 127.947 74.3701 128.059 74.3744L139.1 74.8834C139.213 74.8891 139.307 74.9319 139.382 75.0146C139.458 75.0972 139.492 75.1956 139.488 75.3083L139.415 76.9009C139.409 77.0249 139.365 77.1219 139.282 77.1917C139.2 77.2616 139.103 77.2944 138.99 77.2887L127.949 76.7797C127.837 76.774 127.743 76.7326 127.667 76.6556C127.592 76.5786 127.556 76.4774 127.562 76.3534L127.636 74.7622H127.634Z" fill="#888888"/>
<path d="M126.559 83.0717C126.745 82.0822 127.067 81.2638 127.528 80.6136C127.988 79.9635 128.597 79.503 129.355 79.2306C130.114 78.9583 131.006 78.9013 132.034 79.0581C132.513 79.1365 132.987 79.2192 133.454 79.3062C133.92 79.3932 134.397 79.4887 134.884 79.5914C135.889 79.8138 136.692 80.193 137.292 80.732C137.893 81.2695 138.299 81.9296 138.51 82.7095C138.719 83.4909 138.737 84.3592 138.558 85.3144C138.38 86.2697 138.051 87.0767 137.572 87.734C137.093 88.3913 136.475 88.8632 135.721 89.1469C134.967 89.4307 134.08 89.4963 133.064 89.3408C132.57 89.271 132.091 89.194 131.624 89.107C131.157 89.02 130.687 88.9202 130.214 88.809C129.197 88.5852 128.386 88.2088 127.777 87.6812C127.168 87.1537 126.768 86.5007 126.574 85.7236C126.38 84.9466 126.376 84.0626 126.561 83.0745L126.559 83.0717ZM128.476 83.4296C128.34 84.151 128.444 84.7798 128.786 85.3159C129.129 85.8505 129.78 86.2255 130.741 86.4394C131.226 86.5534 131.676 86.649 132.093 86.726C132.509 86.803 132.958 86.8757 133.44 86.9427C134.089 87.0411 134.635 87.0197 135.081 86.8785C135.527 86.7374 135.877 86.5007 136.127 86.1685C136.38 85.8363 136.549 85.4314 136.639 84.9537C136.726 84.4875 136.713 84.0541 136.598 83.652C136.484 83.2513 136.243 82.9049 135.878 82.6126C135.513 82.3203 135.01 82.1022 134.37 81.9596C133.893 81.8584 133.449 81.77 133.031 81.6915C132.613 81.6131 132.161 81.5347 131.669 81.4549C130.697 81.308 129.954 81.4221 129.441 81.797C128.928 82.172 128.605 82.7152 128.473 83.4267L128.476 83.4296Z" fill="#888888"/>
<path d="M125.323 89.4222C125.366 89.3166 125.437 89.2425 125.541 89.1983C125.644 89.1541 125.748 89.1541 125.854 89.1955L136.093 93.3117C136.209 93.3587 136.288 93.4329 136.333 93.5355C136.377 93.6382 136.377 93.7423 136.335 93.8478L135.848 95.0583C135.789 95.2051 135.711 95.2992 135.615 95.3391C135.52 95.3805 135.452 95.4047 135.412 95.4133L126.544 97.11L133.448 99.886C133.564 99.933 133.645 100.004 133.691 100.103C133.736 100.2 133.736 100.307 133.691 100.422L133.159 101.744C133.112 101.859 133.038 101.939 132.935 101.982C132.832 102.026 132.723 102.025 132.607 101.978L122.383 97.8671C122.268 97.82 122.188 97.7459 122.144 97.6432C122.1 97.5406 122.1 97.4365 122.141 97.331L122.634 96.1048C122.694 95.9579 122.773 95.8681 122.871 95.8339C122.969 95.7997 123.035 95.7726 123.069 95.7498L131.773 94.006L125.01 91.2871C124.904 91.2443 124.83 91.1716 124.786 91.0689C124.742 90.9663 124.743 90.8565 124.79 90.741L125.322 89.4193L125.323 89.4222Z" fill="#888888"/>
<path d="M30.7825 124.64C29.9699 123.975 29.3882 123.297 29.0375 122.61C28.6882 121.923 28.5299 121.267 28.5641 120.645C28.5984 120.024 28.7823 119.492 29.1159 119.048C29.18 118.97 29.2599 118.926 29.3554 118.916C29.4509 118.906 29.5379 118.933 29.6163 118.999L30.784 119.954C30.898 120.047 30.9636 120.141 30.9807 120.235C30.9978 120.329 30.9993 120.43 30.9864 120.536C30.9023 120.745 30.8695 120.99 30.8852 121.274C30.9009 121.558 30.995 121.857 31.1675 122.174C31.34 122.49 31.6223 122.81 32.0158 123.13C32.646 123.647 33.202 123.926 33.6839 123.97C34.1658 124.014 34.5536 123.858 34.8473 123.498C35.0554 123.245 35.1381 122.974 35.0968 122.684C35.0554 122.395 34.9143 122.045 34.6733 121.636C34.431 121.227 34.0831 120.719 33.6297 120.114C33.1022 119.419 32.7087 118.78 32.4506 118.196C32.1912 117.611 32.0899 117.057 32.1455 116.533C32.2011 116.01 32.4449 115.485 32.8741 114.961C33.289 114.453 33.7951 114.115 34.3939 113.947C34.9913 113.779 35.6385 113.79 36.3371 113.981C37.0343 114.172 37.7386 114.559 38.4458 115.138C39.0146 115.602 39.4538 116.091 39.766 116.602C40.0782 117.112 40.2764 117.611 40.3605 118.096C40.4446 118.582 40.4475 119.029 40.3676 119.439C40.2878 119.848 40.1409 120.193 39.9285 120.471C39.8715 120.541 39.7945 120.585 39.7004 120.603C39.6049 120.62 39.5151 120.593 39.4267 120.521L38.2063 119.523C38.1364 119.466 38.0808 119.391 38.0394 119.299C37.9981 119.207 37.9952 119.096 38.0295 118.963C38.1991 118.649 38.2177 118.277 38.0865 117.849C37.9553 117.422 37.6616 117.02 37.2082 116.649C36.7363 116.262 36.2844 116.039 35.8524 115.977C35.4204 115.916 35.054 116.069 34.7532 116.436C34.5521 116.682 34.458 116.944 34.4709 117.223C34.4823 117.503 34.5978 117.835 34.8173 118.219C35.0355 118.602 35.3505 119.08 35.7611 119.649C36.3685 120.423 36.819 121.113 37.1127 121.719C37.4064 122.325 37.5233 122.885 37.4677 123.4C37.4107 123.916 37.1712 124.432 36.7492 124.947C36.2773 125.524 35.7184 125.889 35.0754 126.042C34.4324 126.194 33.7409 126.152 33.0024 125.912C32.2639 125.673 31.5225 125.249 30.7797 124.64H30.7825Z" fill="#888888"/>
<path d="M37.321 129.169C37.2255 129.109 37.1642 129.025 37.1385 128.916C37.1128 128.808 37.1299 128.705 37.1898 128.608L43.011 119.212C43.0709 119.117 43.155 119.056 43.2634 119.03C43.3717 119.004 43.4744 119.021 43.5713 119.081L44.9258 119.921C45.0313 119.987 45.094 120.072 45.1154 120.178C45.1368 120.283 45.1154 120.384 45.0569 120.481L39.2357 129.877C39.1759 129.973 39.0946 130.035 38.9905 130.064C38.8864 130.092 38.7809 130.074 38.6754 130.008L37.321 129.169Z" fill="#888888"/>
<path d="M42.3823 132.234C42.2783 132.188 42.207 132.114 42.1656 132.009C42.1243 131.905 42.1271 131.801 42.1728 131.698L46.6067 121.592C46.6566 121.478 46.7336 121.401 46.8377 121.36C46.9418 121.32 47.0459 121.321 47.1485 121.367L48.3433 121.891C48.4887 121.956 48.5799 122.035 48.617 122.132C48.6541 122.229 48.6769 122.298 48.684 122.338L50.1026 131.255L53.0937 124.439C53.1436 124.325 53.2178 124.247 53.3176 124.204C53.416 124.161 53.5229 124.164 53.6369 124.214L54.9415 124.786C55.0555 124.836 55.1325 124.913 55.1724 125.017C55.2124 125.121 55.2081 125.231 55.1582 125.343L50.7299 135.434C50.68 135.548 50.603 135.625 50.4989 135.665C50.3949 135.706 50.2908 135.703 50.1881 135.657L48.9777 135.126C48.8323 135.061 48.7453 134.98 48.7154 134.88C48.6854 134.781 48.6583 134.714 48.637 134.679L47.1656 125.925L44.2358 132.601C44.1901 132.705 44.116 132.776 44.0119 132.817C43.9079 132.859 43.7981 132.853 43.6854 132.803L42.3809 132.231L42.3823 132.234Z" fill="#888888"/>
<path d="M58.6467 138.15C57.6202 137.923 56.7905 137.551 56.1589 137.036C55.5258 136.52 55.0953 135.887 54.8686 135.137C54.6405 134.387 54.6091 133.537 54.7716 132.589C54.86 132.134 54.9627 131.648 55.0767 131.129C55.1908 130.61 55.3063 130.115 55.4218 129.643C55.6713 128.727 56.0605 127.974 56.5894 127.384C57.1184 126.795 57.7785 126.4 58.5698 126.197C59.361 125.996 60.2635 126.008 61.2786 126.232C62.0285 126.397 62.6801 126.645 63.2318 126.976C63.7836 127.307 64.2313 127.692 64.5734 128.132C64.9156 128.573 65.1523 129.05 65.2806 129.565C65.4103 130.08 65.4203 130.609 65.312 131.152C65.3006 131.253 65.2521 131.33 65.1665 131.38C65.0796 131.43 64.9869 131.444 64.8885 131.423L63.316 131.075C63.1948 131.048 63.1021 130.997 63.0379 130.918C62.9738 130.841 62.941 130.726 62.9396 130.576C62.9239 129.809 62.73 129.244 62.3579 128.885C61.9858 128.526 61.4796 128.275 60.8395 128.132C60.0995 127.968 59.4637 128.045 58.9319 128.362C58.3987 128.678 58.0109 129.307 57.7685 130.249C57.5361 131.148 57.3308 132.074 57.154 133.03C56.9772 133.986 57.0642 134.719 57.4135 135.231C57.7628 135.743 58.3074 136.079 59.0474 136.243C59.6875 136.385 60.2521 136.369 60.7425 136.192C61.233 136.017 61.645 135.59 61.9801 134.912C62.0471 134.765 62.1255 134.672 62.2153 134.634C62.3051 134.595 62.4106 134.59 62.5318 134.617L64.1044 134.964C64.2042 134.986 64.2812 135.039 64.3396 135.12C64.3967 135.203 64.4081 135.291 64.3753 135.388C64.2441 135.927 64.0131 136.402 63.6781 136.814C63.3431 137.226 62.9282 137.559 62.432 137.815C61.9359 138.07 61.3684 138.231 60.7283 138.298C60.0881 138.365 59.3938 138.315 58.6425 138.15H58.6467Z" fill="#888888"/>
<path d="M67.0785 139.363C66.9658 139.359 66.8703 139.316 66.7947 139.235C66.7177 139.153 66.6821 139.055 66.6864 138.942L67.0742 127.912C67.0785 127.788 67.1212 127.689 67.2039 127.612C67.2852 127.536 67.3836 127.499 67.4962 127.503L74.9498 127.766C75.0739 127.77 75.1737 127.813 75.2507 127.895C75.3262 127.977 75.3633 128.081 75.359 128.205L75.3191 129.323C75.3148 129.435 75.272 129.531 75.1908 129.606C75.1081 129.683 75.0054 129.719 74.8814 129.715L69.3083 129.518L69.2028 132.516L74.4038 132.699C74.5278 132.703 74.6276 132.743 74.7046 132.82C74.7816 132.897 74.8172 132.997 74.813 133.121L74.7759 134.172C74.7716 134.296 74.7288 134.393 74.6462 134.464C74.5649 134.535 74.4622 134.568 74.3368 134.564L69.1358 134.381L69.0274 137.482L74.736 137.683C74.86 137.688 74.9598 137.73 75.0368 137.813C75.1124 137.896 75.1494 137.998 75.1452 138.122L75.1052 139.24C75.101 139.353 75.0582 139.448 74.9769 139.524C74.8942 139.601 74.7916 139.637 74.6675 139.632L67.0785 139.366V139.363Z" fill="#888888"/>
<path d="M82.3337 139.005C82.2225 139.028 82.1213 139.008 82.0272 138.947C81.9345 138.885 81.8761 138.798 81.8533 138.689L81.6807 137.842C81.6608 137.742 81.6608 137.618 81.6822 137.47C81.7035 137.321 81.7891 137.157 81.9359 136.976L84.0303 133.834C84.6434 133.11 85.1338 132.499 85.5002 132.003C85.8666 131.508 86.1176 131.071 86.2544 130.69C86.3913 130.311 86.4255 129.954 86.3571 129.622C86.2559 129.123 86.0377 128.747 85.7027 128.493C85.3676 128.238 84.9071 128.171 84.3212 128.29C83.9334 128.369 83.6226 128.516 83.3902 128.731C83.1564 128.946 82.9924 129.202 82.8969 129.497C82.8014 129.793 82.7586 130.107 82.7686 130.439C82.7757 130.587 82.7358 130.7 82.6474 130.776C82.559 130.851 82.4649 130.9 82.3651 130.92L80.8866 131.22C80.7868 131.24 80.697 131.225 80.6172 131.172C80.5373 131.119 80.4888 131.048 80.4703 130.96C80.3848 130.482 80.3905 129.999 80.4874 129.511C80.5844 129.023 80.7768 128.57 81.0663 128.148C81.3542 127.726 81.7378 127.357 82.2154 127.04C82.693 126.724 83.259 126.5 83.912 126.366C84.8316 126.179 85.6243 126.179 86.2901 126.366C86.9559 126.552 87.4962 126.882 87.9097 127.351C88.3217 127.82 88.5969 128.387 88.7323 129.052C88.8378 129.572 88.8364 130.071 88.7252 130.549C88.6154 131.027 88.413 131.507 88.1178 131.988C87.8241 132.468 87.4535 132.974 87.0072 133.502L85.1353 136.373L89.87 135.409C89.9912 135.385 90.0953 135.401 90.1823 135.458C90.2692 135.515 90.3249 135.605 90.3491 135.726L90.5886 136.905C90.6114 137.016 90.5943 137.117 90.5387 137.209C90.4817 137.301 90.3933 137.36 90.2721 137.384L82.3323 139L82.3337 139.005Z" fill="#888888"/>
<path d="M97.7527 134.952C97.0071 135.25 96.3284 135.394 95.7168 135.384C95.1037 135.374 94.552 135.241 94.0615 134.987C93.5697 134.733 93.1391 134.386 92.767 133.944C92.3949 133.502 92.0784 132.998 91.816 132.434C91.692 132.154 91.5594 131.846 91.4183 131.507C91.2771 131.168 91.1388 130.824 91.0062 130.476C90.8722 130.128 90.7525 129.805 90.6455 129.507C90.4359 128.921 90.3176 128.339 90.2934 127.759C90.2677 127.178 90.3504 126.631 90.54 126.117C90.7296 125.603 91.0433 125.131 91.4796 124.7C91.9158 124.27 92.4961 123.91 93.2204 123.621C93.9546 123.327 94.629 123.186 95.2406 123.196C95.8537 123.206 96.4054 123.333 96.8973 123.574C97.3892 123.815 97.824 124.156 98.2004 124.595C98.5768 125.034 98.8919 125.539 99.1428 126.107C99.2811 126.393 99.4194 126.709 99.5591 127.056C99.6988 127.402 99.8357 127.746 99.9711 128.086C100.108 128.427 100.222 128.744 100.315 129.036C100.524 129.622 100.647 130.202 100.683 130.778C100.718 131.354 100.645 131.905 100.466 132.427C100.285 132.95 99.974 133.426 99.532 133.859C99.09 134.291 98.4969 134.656 97.7513 134.954L97.7527 134.952ZM97.0285 133.142C97.71 132.87 98.122 132.447 98.2646 131.872C98.4057 131.297 98.3287 130.626 98.0336 129.856C97.9324 129.544 97.8212 129.231 97.6971 128.922C97.5731 128.613 97.4476 128.3 97.3222 127.985C97.1967 127.67 97.0655 127.375 96.9315 127.101C96.6236 126.36 96.2172 125.825 95.7154 125.497C95.2121 125.169 94.6204 125.141 93.9389 125.415C93.2674 125.683 92.8625 126.11 92.7257 126.695C92.5888 127.279 92.6586 127.948 92.9352 128.702C93.0479 128.986 93.1662 129.286 93.286 129.602C93.4071 129.919 93.5312 130.231 93.6609 130.539C93.7907 130.847 93.9161 131.152 94.0373 131.457C94.3652 132.214 94.7801 132.752 95.2834 133.067C95.7867 133.383 96.3698 133.407 97.0299 133.144L97.0285 133.142Z" fill="#888888"/>
<path d="M107.699 129.776C107.592 129.84 107.486 129.856 107.383 129.826C107.279 129.796 107.2 129.732 107.141 129.635L102.643 122.094L101.447 125.118C101.394 125.228 101.32 125.302 101.224 125.34C101.129 125.378 101.021 125.373 100.901 125.326L99.8201 124.904C99.7103 124.851 99.6333 124.773 99.5891 124.666C99.5463 124.561 99.5506 124.452 99.6033 124.342L101.361 119.878C101.391 119.796 101.431 119.731 101.484 119.687C101.537 119.643 101.596 119.6 101.665 119.56L102.947 118.796C103.044 118.738 103.146 118.723 103.255 118.751C103.363 118.778 103.446 118.84 103.504 118.937L109.167 128.43C109.226 128.527 109.24 128.63 109.213 128.738C109.186 128.846 109.123 128.931 109.026 128.988L107.701 129.778L107.699 129.776Z" fill="#888888"/>
<path d="M115.329 124.565C114.579 125.182 113.843 125.58 113.125 125.754C112.405 125.929 111.748 125.926 111.15 125.744C110.554 125.561 110.06 125.251 109.669 124.811C109.596 124.74 109.568 124.657 109.585 124.562C109.602 124.468 109.65 124.388 109.729 124.322L110.946 123.32C111.042 123.242 111.139 123.195 111.237 123.179C111.336 123.163 111.441 123.19 111.555 123.257C111.857 123.447 112.158 123.56 112.456 123.591C112.754 123.624 113.042 123.591 113.32 123.494C113.598 123.397 113.855 123.25 114.091 123.056C114.405 122.798 114.639 122.499 114.793 122.161C114.945 121.823 114.997 121.462 114.945 121.08C114.894 120.698 114.717 120.323 114.417 119.957C114.151 119.634 113.846 119.416 113.504 119.302C113.162 119.19 112.807 119.171 112.438 119.247C112.068 119.324 111.719 119.498 111.387 119.771C111.143 119.972 110.968 120.169 110.861 120.359C110.754 120.55 110.678 120.728 110.634 120.896C110.59 121.065 110.551 121.214 110.519 121.343C110.486 121.472 110.417 121.579 110.313 121.666L109.11 122.657C109.032 122.721 108.94 122.75 108.838 122.74C108.734 122.73 108.651 122.686 108.585 122.607L105.358 117.754C105.273 117.634 105.241 117.514 105.259 117.395C105.279 117.276 105.336 117.178 105.432 117.098L110.352 113.046C110.439 112.975 110.539 112.943 110.65 112.955C110.761 112.966 110.852 113.015 110.925 113.102L111.646 113.978C111.718 114.065 111.749 114.165 111.738 114.276C111.726 114.388 111.678 114.479 111.591 114.552L107.808 117.665L109.355 119.971C109.427 119.737 109.553 119.465 109.736 119.153C109.918 118.842 110.241 118.495 110.704 118.115C111.123 117.77 111.578 117.509 112.068 117.332C112.559 117.155 113.059 117.072 113.567 117.085C114.076 117.098 114.563 117.216 115.032 117.437C115.502 117.66 115.925 118.002 116.306 118.464C116.83 119.101 117.138 119.777 117.229 120.493C117.321 121.209 117.208 121.916 116.892 122.616C116.575 123.316 116.055 123.965 115.33 124.561L115.329 124.565Z" fill="#888888"/>
<path d="M25.7769 110.887C24.6734 111.709 23.3646 111.432 22.6303 110.448C21.8975 109.463 22.0073 108.13 23.1108 107.307C24.2043 106.493 25.5231 106.762 26.2573 107.746C26.9916 108.73 26.8704 110.072 25.7769 110.887Z" fill="#888888"/>
<path d="M122.882 107.307C123.986 108.128 124.096 109.463 123.363 110.448C122.63 111.433 121.32 111.71 120.216 110.887C119.123 110.073 119.003 108.731 119.736 107.746C120.469 106.761 121.789 106.493 122.882 107.307Z" fill="#888888"/>
<path d="M33.2034 61.4839H33.2005C32.6864 61.4839 32.2695 61.9007 32.2695 62.4149V83.3568C32.2695 83.871 32.6864 84.2878 33.2005 84.2878H33.2034C33.7175 84.2878 34.1344 83.871 34.1344 83.3568V62.4149C34.1344 61.9007 33.7175 61.4839 33.2034 61.4839Z" fill="#888888"/>
<path d="M41.1633 65.6885H41.1605C40.6463 65.6885 40.2295 66.1053 40.2295 66.6195V79.1521C40.2295 79.6663 40.6463 80.0832 41.1605 80.0832H41.1633C41.6775 80.0832 42.0943 79.6663 42.0943 79.1521V66.6195C42.0943 66.1053 41.6775 65.6885 41.1633 65.6885Z" fill="#888888"/>
<path d="M104.834 65.6885H104.831C104.317 65.6885 103.9 66.1053 103.9 66.6195V79.1521C103.9 79.6663 104.317 80.0832 104.831 80.0832H104.834C105.348 80.0832 105.765 79.6663 105.765 79.1521V66.6195C105.765 66.1053 105.348 65.6885 104.834 65.6885Z" fill="#888888"/>
<path d="M112.794 61.4839H112.791C112.277 61.4839 111.86 61.9007 111.86 62.4149V83.3568C111.86 83.871 112.277 84.2878 112.791 84.2878H112.794C113.308 84.2878 113.725 83.871 113.725 83.3568V62.4149C113.725 61.9007 113.308 61.4839 112.794 61.4839Z" fill="#888888"/>
<path d="M65.0398 63.0879H65.0369C64.5228 63.0879 64.106 63.5047 64.106 64.0189V81.7542C64.106 82.2684 64.5228 82.6853 65.0369 82.6853H65.0398C65.554 82.6853 65.9708 82.2684 65.9708 81.7542V64.0189C65.9708 63.5047 65.554 63.0879 65.0398 63.0879Z" fill="#888888"/>
<path d="M80.9578 63.0879H80.9549C80.4407 63.0879 80.0239 63.5047 80.0239 64.0189V81.7542C80.0239 82.2684 80.4407 82.6853 80.9549 82.6853H80.9578C81.4719 82.6853 81.8888 82.2684 81.8888 81.7542V64.0189C81.8888 63.5047 81.4719 63.0879 80.9578 63.0879Z" fill="#888888"/>
<path d="M72.9995 61.2073H72.9967C72.4825 61.2073 72.0657 61.6241 72.0657 62.1383V83.6348C72.0657 84.149 72.4825 84.5658 72.9967 84.5658H72.9995C73.5137 84.5658 73.9305 84.149 73.9305 83.6348V62.1383C73.9305 61.6241 73.5137 61.2073 72.9995 61.2073Z" fill="#888888"/>
<path d="M57.0798 70.5676H57.077C56.5628 70.5676 56.146 70.9845 56.146 71.4987V74.2718C56.146 74.786 56.5628 75.2028 57.077 75.2028H57.0798C57.594 75.2028 58.0108 74.786 58.0108 74.2718V71.4987C58.0108 70.9845 57.594 70.5676 57.0798 70.5676Z" fill="#888888"/>
<path d="M88.9163 70.5676H88.9134C88.3992 70.5676 87.9824 70.9845 87.9824 71.4987V74.2718C87.9824 74.786 88.3992 75.2028 88.9134 75.2028H88.9163C89.4304 75.2028 89.8473 74.786 89.8473 74.2718V71.4987C89.8473 70.9845 89.4304 70.5676 88.9163 70.5676Z" fill="#888888"/>
<path d="M50.5672 69.0192C49.9798 69.7962 49.4053 70.5761 48.8321 71.3518C48.5898 71.6811 48.3474 72.009 48.1064 72.3341C43.5712 66.2745 38.9277 60.9036 30.9437 60.1979C29.9214 60.108 29.1316 59.2626 29.1316 58.236V58.2075C29.1316 57.0526 30.1225 56.1472 31.273 56.247C35.774 56.6363 39.7603 58.2816 43.403 61.2444C46.1261 63.4572 48.4187 66.199 50.5658 69.0178L50.5672 69.0192Z" fill="#888888"/>
<path d="M116.862 58.2104V58.239C116.862 59.2655 116.072 60.111 115.05 60.2008C107.066 60.9066 102.422 66.2775 97.8869 72.3385C97.7229 72.5595 97.5575 72.7805 97.3936 73.0029C97.1027 73.3936 96.8133 73.7857 96.5224 74.1792C95.9964 74.8921 95.466 75.6107 94.9285 76.3264C94.7645 76.546 94.5977 76.7656 94.4309 76.9837C92.2838 79.8025 89.9912 82.5443 87.2681 84.7571C83.058 88.1789 78.3888 89.8443 72.9967 89.8443C67.6047 89.8443 62.9354 88.1804 58.7253 84.7571C56.0036 82.5443 53.7096 79.8025 51.5625 76.9837C52.1485 76.2067 52.7245 75.4268 53.2976 74.6511C53.54 74.3218 53.7823 73.9938 54.0247 73.6688C58.8921 80.1732 63.885 85.8834 72.9981 85.8834C82.1113 85.8834 87.1042 80.1746 91.9716 73.6688C92.137 73.4478 92.3009 73.2268 92.4677 73.0044C92.7571 72.6137 93.048 72.2216 93.3374 71.8281C93.8635 71.1152 94.3939 70.3966 94.9313 69.6809C95.0953 69.4613 95.2621 69.2417 95.4289 69.0236C97.5761 66.2048 99.87 63.463 102.592 61.2502C106.234 58.286 110.221 56.6421 114.723 56.2514C115.874 56.1516 116.863 57.057 116.863 58.2119L116.862 58.2104Z" fill="#888888"/>
<path d="M94.4308 69.0192C93.8448 69.7962 93.2688 70.5762 92.6957 71.3518C92.4533 71.6811 92.2109 72.0091 91.9686 72.3341C87.1012 65.8297 82.1083 60.1195 72.9951 60.1195C63.882 60.1195 58.8891 65.8297 54.0217 72.3341C53.8563 72.5551 53.6909 72.7776 53.5256 72.9986C53.2347 73.3892 52.9453 73.7813 52.6559 74.1748C52.1298 74.8877 51.5994 75.6063 51.0619 76.322C50.898 76.5416 50.7311 76.7612 50.5643 76.9793C48.4172 79.7981 46.1247 82.5399 43.4015 84.7527C39.7588 87.714 35.7725 89.3594 31.2716 89.7501C30.121 89.8499 29.1301 88.9445 29.1301 87.7882V87.7597C29.1301 86.7331 29.92 85.8876 30.9422 85.7978C38.9262 85.092 43.5698 79.7225 48.105 73.663C48.2689 73.4434 48.4343 73.221 48.5983 72.9986C48.8891 72.6079 49.1785 72.2158 49.468 71.8223C49.9941 71.1094 50.5244 70.3908 51.0619 69.6751C51.2259 69.4555 51.3927 69.2359 51.5595 69.0178C53.7066 66.1976 56.0006 63.4572 58.7223 61.2444C62.9339 57.8211 67.6016 56.1572 72.9951 56.1572C78.3886 56.1572 83.0564 57.8211 87.2666 61.2444C89.9897 63.4572 92.2822 66.199 94.4293 69.0178L94.4308 69.0192Z" fill="#888888"/>
<path d="M116.862 87.7611V87.7896C116.862 88.9444 115.871 89.8498 114.722 89.7514C110.219 89.3608 106.234 87.7169 102.59 84.7541C99.8686 82.5413 97.5746 79.7995 95.4275 76.9807C96.0135 76.2037 96.5894 75.4238 97.1626 74.6481C97.405 74.3188 97.6473 73.9923 97.8883 73.6658C102.423 79.7253 107.067 85.0948 115.051 85.8006C116.073 85.8904 116.863 86.7359 116.863 87.7625L116.862 87.7611Z" fill="#888888"/>
<path d="M224.608 110.96C218.656 110.96 213.664 110.096 209.632 108.368C205.664 106.576 202.624 104.272 200.512 101.456C198.464 98.576 197.376 95.568 197.248 92.432C197.248 91.856 197.44 91.376 197.824 90.992C198.208 90.608 198.688 90.416 199.264 90.416H207.808C208.64 90.416 209.248 90.608 209.632 90.992C210.08 91.312 210.464 91.728 210.784 92.24C211.168 93.456 211.904 94.672 212.992 95.888C214.08 97.04 215.552 98 217.408 98.768C219.328 99.536 221.728 99.92 224.608 99.92C229.216 99.92 232.64 99.152 234.88 97.616C237.184 96.08 238.336 94 238.336 91.376C238.336 89.52 237.728 88.048 236.512 86.96C235.296 85.808 233.408 84.784 230.848 83.888C228.352 82.928 225.024 81.936 220.864 80.912C216.064 79.76 212.032 78.384 208.768 76.784C205.568 75.12 203.136 73.04 201.472 70.544C199.872 68.048 199.072 64.88 199.072 61.04C199.072 57.328 200.064 54.032 202.048 51.152C204.096 48.272 206.976 46 210.688 44.336C214.464 42.672 218.944 41.84 224.128 41.84C228.288 41.84 231.968 42.416 235.168 43.568C238.368 44.656 241.024 46.128 243.136 47.984C245.248 49.776 246.848 51.728 247.936 53.84C249.088 55.888 249.696 57.904 249.76 59.888C249.76 60.4 249.568 60.88 249.184 61.328C248.864 61.712 248.384 61.904 247.744 61.904H238.816C238.304 61.904 237.792 61.776 237.28 61.52C236.768 61.264 236.352 60.784 236.032 60.08C235.648 58.096 234.4 56.4 232.288 54.992C230.176 53.584 227.456 52.88 224.128 52.88C220.672 52.88 217.888 53.52 215.776 54.8C213.664 56.08 212.608 58.064 212.608 60.752C212.608 62.544 213.12 64.048 214.144 65.264C215.232 66.416 216.928 67.44 219.232 68.336C221.6 69.232 224.704 70.192 228.544 71.216C233.984 72.432 238.432 73.84 241.888 75.44C245.344 77.04 247.872 79.088 249.472 81.584C251.072 84.016 251.872 87.12 251.872 90.896C251.872 95.12 250.72 98.736 248.416 101.744C246.176 104.688 243.008 106.96 238.912 108.56C234.816 110.16 230.048 110.96 224.608 110.96ZM279.212 110C278.572 110 278.028 109.776 277.58 109.328C277.132 108.88 276.908 108.336 276.908 107.696V54.608H259.148C258.508 54.608 257.964 54.384 257.516 53.936C257.068 53.488 256.844 52.944 256.844 52.304V45.2C256.844 44.496 257.068 43.92 257.516 43.472C257.964 43.024 258.508 42.8 259.148 42.8H308.108C308.812 42.8 309.388 43.024 309.836 43.472C310.284 43.92 310.508 44.496 310.508 45.2V52.304C310.508 52.944 310.284 53.488 309.836 53.936C309.388 54.384 308.812 54.608 308.108 54.608H290.444V107.696C290.444 108.336 290.22 108.88 289.772 109.328C289.324 109.776 288.748 110 288.044 110H279.212ZM347.033 110.96C341.465 110.96 336.633 110.032 332.537 108.176C328.441 106.256 325.273 103.344 323.033 99.44C320.793 95.472 319.673 90.416 319.673 84.272V45.2C319.673 44.496 319.897 43.92 320.345 43.472C320.793 43.024 321.337 42.8 321.977 42.8H330.713C331.417 42.8 331.961 43.024 332.345 43.472C332.793 43.92 333.017 44.496 333.017 45.2V84.272C333.017 89.52 334.265 93.424 336.761 95.984C339.257 98.48 342.681 99.728 347.033 99.728C351.385 99.728 354.777 98.48 357.209 95.984C359.705 93.424 360.953 89.52 360.953 84.272V45.2C360.953 44.496 361.177 43.92 361.625 43.472C362.073 43.024 362.649 42.8 363.353 42.8H371.993C372.697 42.8 373.241 43.024 373.625 43.472C374.073 43.92 374.297 44.496 374.297 45.2V84.272C374.297 90.416 373.177 95.472 370.937 99.44C368.761 103.344 365.625 106.256 361.529 108.176C357.497 110.032 352.665 110.96 347.033 110.96ZM390.99 110C390.35 110 389.806 109.776 389.358 109.328C388.91 108.88 388.686 108.336 388.686 107.696V45.2C388.686 44.496 388.91 43.92 389.358 43.472C389.806 43.024 390.35 42.8 390.99 42.8H414.414C420.878 42.8 426.19 43.792 430.35 45.776C434.574 47.76 437.742 50.704 439.854 54.608C442.03 58.512 443.15 63.28 443.214 68.912C443.342 71.728 443.406 74.224 443.406 76.4C443.406 78.576 443.342 81.04 443.214 83.792C443.086 89.744 441.998 94.672 439.95 98.576C437.902 102.416 434.798 105.296 430.638 107.216C426.542 109.072 421.294 110 414.894 110H390.99ZM402.03 98.96H414.414C417.998 98.96 420.91 98.448 423.15 97.424C425.39 96.4 427.022 94.768 428.046 92.528C429.134 90.224 429.71 87.216 429.774 83.504C429.838 81.584 429.87 79.92 429.87 78.512C429.934 77.04 429.934 75.6 429.87 74.192C429.87 72.72 429.838 71.056 429.774 69.2C429.646 63.952 428.334 60.08 425.838 57.584C423.342 55.088 419.374 53.84 413.934 53.84H402.03V98.96ZM458.49 110C457.85 110 457.306 109.776 456.858 109.328C456.41 108.88 456.186 108.336 456.186 107.696V45.2C456.186 44.496 456.41 43.92 456.858 43.472C457.306 43.024 457.85 42.8 458.49 42.8H500.73C501.434 42.8 502.01 43.024 502.458 43.472C502.906 43.92 503.13 44.496 503.13 45.2V51.536C503.13 52.176 502.906 52.72 502.458 53.168C502.01 53.616 501.434 53.84 500.73 53.84H469.146V70.832H498.618C499.322 70.832 499.898 71.056 500.346 71.504C500.794 71.888 501.018 72.432 501.018 73.136V79.088C501.018 79.792 500.794 80.368 500.346 80.816C499.898 81.2 499.322 81.392 498.618 81.392H469.146V98.96H501.498C502.202 98.96 502.778 99.184 503.226 99.632C503.674 100.08 503.898 100.656 503.898 101.36V107.696C503.898 108.336 503.674 108.88 503.226 109.328C502.778 109.776 502.202 110 501.498 110H458.49ZM518.209 110C517.569 110 517.025 109.776 516.577 109.328C516.129 108.88 515.905 108.336 515.905 107.696V45.2C515.905 44.496 516.129 43.92 516.577 43.472C517.025 43.024 517.569 42.8 518.209 42.8H525.601C526.497 42.8 527.137 43.024 527.521 43.472C527.969 43.856 528.257 44.144 528.385 44.336L556.033 87.344V45.2C556.033 44.496 556.225 43.92 556.609 43.472C557.057 43.024 557.633 42.8 558.337 42.8H566.401C567.105 42.8 567.681 43.024 568.129 43.472C568.577 43.92 568.801 44.496 568.801 45.2V107.6C568.801 108.304 568.577 108.88 568.129 109.328C567.681 109.776 567.137 110 566.497 110H559.009C558.113 110 557.473 109.776 557.089 109.328C556.705 108.88 556.417 108.592 556.225 108.464L528.673 66.416V107.696C528.673 108.336 528.449 108.88 528.001 109.328C527.553 109.776 526.977 110 526.273 110H518.209ZM600.868 110C600.228 110 599.684 109.776 599.236 109.328C598.788 108.88 598.564 108.336 598.564 107.696V54.608H580.804C580.164 54.608 579.62 54.384 579.172 53.936C578.724 53.488 578.5 52.944 578.5 52.304V45.2C578.5 44.496 578.724 43.92 579.172 43.472C579.62 43.024 580.164 42.8 580.804 42.8H629.764C630.468 42.8 631.044 43.024 631.492 43.472C631.94 43.92 632.164 44.496 632.164 45.2V52.304C632.164 52.944 631.94 53.488 631.492 53.936C631.044 54.384 630.468 54.608 629.764 54.608H612.1V107.696C612.1 108.336 611.876 108.88 611.428 109.328C610.98 109.776 610.404 110 609.7 110H600.868ZM688.283 110.96C682.715 110.96 677.883 110.032 673.787 108.176C669.691 106.256 666.523 103.344 664.283 99.44C662.043 95.472 660.923 90.416 660.923 84.272V45.2C660.923 44.496 661.147 43.92 661.595 43.472C662.043 43.024 662.587 42.8 663.227 42.8H671.963C672.667 42.8 673.211 43.024 673.595 43.472C674.043 43.92 674.267 44.496 674.267 45.2V84.272C674.267 89.52 675.515 93.424 678.011 95.984C680.507 98.48 683.931 99.728 688.283 99.728C692.635 99.728 696.027 98.48 698.459 95.984C700.955 93.424 702.203 89.52 702.203 84.272V45.2C702.203 44.496 702.427 43.92 702.875 43.472C703.323 43.024 703.899 42.8 704.603 42.8H713.243C713.947 42.8 714.491 43.024 714.875 43.472C715.323 43.92 715.547 44.496 715.547 45.2V84.272C715.547 90.416 714.427 95.472 712.187 99.44C710.011 103.344 706.875 106.256 702.779 108.176C698.747 110.032 693.915 110.96 688.283 110.96ZM732.24 110C731.6 110 731.056 109.776 730.608 109.328C730.16 108.88 729.936 108.336 729.936 107.696V45.2C729.936 44.496 730.16 43.92 730.608 43.472C731.056 43.024 731.6 42.8 732.24 42.8H739.632C740.528 42.8 741.168 43.024 741.552 43.472C742 43.856 742.288 44.144 742.416 44.336L770.064 87.344V45.2C770.064 44.496 770.256 43.92 770.64 43.472C771.088 43.024 771.664 42.8 772.368 42.8H780.432C781.136 42.8 781.712 43.024 782.16 43.472C782.608 43.92 782.832 44.496 782.832 45.2V107.6C782.832 108.304 782.608 108.88 782.16 109.328C781.712 109.776 781.168 110 780.528 110H773.04C772.144 110 771.504 109.776 771.12 109.328C770.736 108.88 770.448 108.592 770.256 108.464L742.704 66.416V107.696C742.704 108.336 742.48 108.88 742.032 109.328C741.584 109.776 741.008 110 740.304 110H732.24ZM800.115 110C799.475 110 798.931 109.776 798.483 109.328C798.035 108.88 797.811 108.336 797.811 107.696V45.104C797.811 44.464 798.035 43.92 798.483 43.472C798.931 43.024 799.475 42.8 800.115 42.8H809.139C809.843 42.8 810.387 43.024 810.771 43.472C811.219 43.92 811.443 44.464 811.443 45.104V107.696C811.443 108.336 811.219 108.88 810.771 109.328C810.387 109.776 809.843 110 809.139 110H800.115ZM852.323 110.96C846.627 110.96 841.731 110.032 837.635 108.176C833.539 106.256 830.339 103.344 828.035 99.44C825.731 95.472 824.483 90.544 824.291 84.656C824.227 81.904 824.195 79.184 824.195 76.496C824.195 73.808 824.227 71.056 824.291 68.24C824.483 62.416 825.763 57.552 828.131 53.648C830.499 49.744 833.731 46.8 837.827 44.816C841.987 42.832 846.819 41.84 852.323 41.84C857.827 41.84 862.659 42.832 866.819 44.816C870.979 46.8 874.243 49.744 876.611 53.648C878.979 57.552 880.259 62.416 880.451 68.24C880.579 71.056 880.643 73.808 880.643 76.496C880.643 79.184 880.579 81.904 880.451 84.656C880.259 90.544 879.011 95.472 876.707 99.44C874.403 103.344 871.171 106.256 867.011 108.176C862.915 110.032 858.019 110.96 852.323 110.96ZM852.323 99.92C856.483 99.92 859.875 98.704 862.499 96.272C865.123 93.776 866.531 89.744 866.723 84.176C866.851 81.36 866.915 78.768 866.915 76.4C866.915 73.968 866.851 71.376 866.723 68.624C866.595 64.912 865.891 61.904 864.611 59.6C863.395 57.232 861.731 55.536 859.619 54.512C857.507 53.424 855.075 52.88 852.323 52.88C849.635 52.88 847.235 53.424 845.123 54.512C843.011 55.536 841.315 57.232 840.035 59.6C838.819 61.904 838.147 64.912 838.019 68.624C837.955 71.376 837.923 73.968 837.923 76.4C837.923 78.768 837.955 81.36 838.019 84.176C838.211 89.744 839.619 93.776 842.243 96.272C844.867 98.704 848.227 99.92 852.323 99.92ZM895.553 110C894.913 110 894.369 109.776 893.921 109.328C893.473 108.88 893.249 108.336 893.249 107.696V45.2C893.249 44.496 893.473 43.92 893.921 43.472C894.369 43.024 894.913 42.8 895.553 42.8H902.945C903.841 42.8 904.481 43.024 904.865 43.472C905.313 43.856 905.601 44.144 905.729 44.336L933.377 87.344V45.2C933.377 44.496 933.569 43.92 933.953 43.472C934.401 43.024 934.977 42.8 935.681 42.8H943.745C944.449 42.8 945.025 43.024 945.473 43.472C945.921 43.92 946.145 44.496 946.145 45.2V107.6C946.145 108.304 945.921 108.88 945.473 109.328C945.025 109.776 944.481 110 943.841 110H936.353C935.457 110 934.817 109.776 934.433 109.328C934.049 108.88 933.761 108.592 933.569 108.464L906.017 66.416V107.696C906.017 108.336 905.793 108.88 905.345 109.328C904.897 109.776 904.321 110 903.617 110H895.553Z" fill="#888888"/>
</g>
<defs>
<clipPath id="clip0_614_2">
<rect width="954" height="146" fill="white"/>
</clipPath>
</defs>
</svg>
