<svg width="1024" height="1024" viewBox="0 0 1024 1024" fill="none" xmlns="http://www.w3.org/2000/svg">
<path d="M512 1022.59C443.07 1022.59 376.21 1009.09 313.25 982.46C252.45 956.74 197.84 919.93 150.96 873.04C104.07 826.15 67.26 771.55 41.54 710.75C14.91 647.79 1.41003 580.93 1.41003 512C1.41003 443.07 14.91 376.21 41.54 313.25C67.26 252.45 104.07 197.84 150.96 150.96C197.85 104.07 252.45 67.26 313.25 41.54C376.21 14.91 443.07 1.40997 512 1.40997C580.93 1.40997 647.79 14.91 710.75 41.54C771.55 67.26 826.16 104.07 873.04 150.96C919.93 197.85 956.75 252.45 982.46 313.25C1009.09 376.2 1022.59 443.07 1022.59 512C1022.59 580.93 1009.09 647.79 982.46 710.75C956.74 771.55 919.93 826.16 873.04 873.04C826.15 919.92 771.55 956.75 710.75 982.46C647.8 1009.09 580.93 1022.59 512 1022.59ZM512 13.41C237.08 13.41 13.41 237.08 13.41 512C13.41 786.92 237.08 1010.59 512 1010.59C786.92 1010.59 1010.59 786.92 1010.59 512C1010.59 237.08 786.92 13.41 512 13.41ZM511.91 869.65C463.58 869.65 416.69 860.18 372.54 841.51C329.9 823.48 291.61 797.66 258.74 764.78C225.86 731.9 200.05 693.61 182.01 650.98C163.34 606.84 153.87 559.95 153.87 511.61C153.87 463.27 163.34 416.39 182.01 372.24C200.04 329.6 225.86 291.31 258.74 258.44C291.62 225.56 329.91 199.75 372.54 181.71C416.68 163.04 463.57 153.57 511.91 153.57C560.25 153.57 607.13 163.04 651.28 181.71C693.92 199.74 732.21 225.56 765.09 258.44C797.97 291.32 823.78 329.61 841.82 372.24C860.49 416.38 869.96 463.27 869.96 511.61C869.96 559.95 860.49 606.83 841.82 650.98C823.79 693.62 797.97 731.9 765.09 764.78C732.21 797.66 693.92 823.48 651.28 841.51C607.14 860.18 560.25 869.65 511.91 869.65ZM511.91 165.57C321.1 165.57 165.87 320.8 165.87 511.61C165.87 702.42 321.1 857.65 511.91 857.65C702.72 857.65 857.95 702.42 857.95 511.61C857.95 320.8 702.72 165.57 511.91 165.57Z" fill="#888888"/>
<path d="M167.29 682.67C167.59 683.41 167.58 684.14 167.27 684.86C166.96 685.58 166.44 686.09 165.7 686.39L93.8799 715.26C93.0699 715.59 92.3099 715.59 91.58 715.29C90.86 714.98 90.35 714.46 90.05 713.72L86.6299 705.23C86.2199 704.2 86.15 703.35 86.44 702.68C86.73 702.01 86.9499 701.56 87.1099 701.32L123.76 649.68L75.33 669.15C74.52 669.48 73.7599 669.5 73.0599 669.23C72.3499 668.96 71.84 668.42 71.51 667.61L67.7799 658.34C67.4499 657.53 67.4499 656.77 67.7499 656.04C68.0599 655.32 68.6199 654.79 69.4199 654.47L141.13 625.64C141.94 625.31 142.71 625.31 143.43 625.61C144.15 625.92 144.66 626.44 144.96 627.18L148.42 635.78C148.83 636.81 148.87 637.65 148.54 638.3C148.2 638.95 148.01 639.41 147.95 639.69L112.36 690.78L159.8 671.71C160.54 671.41 161.27 671.42 161.99 671.73C162.71 672.04 163.24 672.6 163.56 673.4L167.29 682.67Z" fill="#888888"/>
<path d="M140.71 611.13C140.86 611.91 140.72 612.62 140.29 613.27C139.85 613.92 139.25 614.32 138.47 614.48L62.5299 629.48C61.6799 629.65 60.9199 629.52 60.2699 629.08C59.6199 628.64 59.2199 628.04 59.0599 627.26L48.9199 575.93C48.7499 575.08 48.8899 574.32 49.3199 573.67C49.7599 573.02 50.3999 572.61 51.2599 572.44L58.9599 570.92C59.7399 570.77 60.4499 570.91 61.0999 571.34C61.7499 571.78 62.16 572.42 62.33 573.28L69.91 611.66L90.5599 607.58L83.4899 571.77C83.3199 570.91 83.4399 570.16 83.8299 569.52C84.2299 568.88 84.8599 568.47 85.7099 568.3L92.9399 566.87C93.7999 566.7 94.5299 566.84 95.1399 567.28C95.7499 567.73 96.1399 568.37 96.3099 569.23L103.38 605.04L124.73 600.82L116.97 561.51C116.8 560.66 116.94 559.9 117.37 559.25C117.81 558.6 118.45 558.19 119.31 558.02L127.01 556.5C127.79 556.35 128.5 556.49 129.15 556.92C129.8 557.36 130.21 558 130.38 558.86L140.7 611.12L140.71 611.13Z" fill="#888888"/>
<path d="M128.2 536.09C128.18 537.28 127.83 538.21 127.14 538.87C126.46 539.53 125.6 539.97 124.56 540.2L48.13 553.11C47.89 553.11 47.7 553.12 47.53 553.16C47.37 553.2 47.25 553.21 47.17 553.21C46.46 553.2 45.87 552.93 45.4 552.41C44.93 551.89 44.7 551.31 44.71 550.67L44.88 540.21C44.91 538.23 45.72 537.13 47.31 536.92L101.32 527.93L66.66 516.67C66.03 516.42 65.38 516 64.72 515.39C64.06 514.78 63.73 513.89 63.75 512.7L63.85 506.28C63.87 505.01 64.22 504.11 64.9 503.56C65.58 503.02 66.24 502.67 66.88 502.52L101.77 492.26L48.19 481.52C46.61 481.26 45.83 480.13 45.87 478.15L46.04 467.69C46.04 467.06 46.3 466.5 46.78 466.04C47.26 465.58 47.86 465.34 48.57 465.36C48.65 465.36 48.77 465.36 48.93 465.36C49.09 465.36 49.29 465.41 49.52 465.49L125.5 480.87C126.53 481.05 127.37 481.49 128.04 482.22C128.7 482.94 129.02 483.9 129 485.09L128.87 493.05C128.85 494.24 128.52 495.17 127.87 495.83C127.23 496.49 126.54 496.94 125.83 497.16L85.91 509.83L125.4 523.79C126.11 524.12 126.78 524.61 127.4 525.25C128.02 525.9 128.33 526.85 128.3 528.12L128.17 536.09H128.2Z" fill="#888888"/>
<path d="M134.5 435.55C134.25 436.39 133.78 436.99 133.08 437.36C132.39 437.73 131.66 437.8 130.91 437.57L56.8 415.22C55.97 414.97 55.36 414.5 54.99 413.8C54.62 413.11 54.56 412.35 54.81 411.51L57.52 402.52C57.84 401.46 58.37 400.75 59.1 400.39C59.83 400.03 60.37 399.82 60.72 399.76L108.33 390.15L74.04 355.59C73.78 355.35 73.45 354.87 73.04 354.17C72.63 353.47 72.59 352.59 72.91 351.52L75.59 342.64C75.84 341.81 76.31 341.2 77.01 340.83C77.7 340.46 78.47 340.4 79.3 340.65L153.41 363C154.17 363.23 154.74 363.69 155.11 364.38C155.48 365.07 155.54 365.84 155.29 366.67L152.41 376.23C152.16 377.07 151.69 377.65 151.01 377.98C150.33 378.31 149.61 378.37 148.85 378.14L99.56 363.27L125.15 388.37C125.72 388.96 126.16 389.63 126.47 390.38C126.78 391.14 126.79 392.01 126.49 392.99L125.08 397.66C124.76 398.72 124.27 399.46 123.6 399.88C122.94 400.3 122.2 400.6 121.41 400.77L86.21 407.54L135.5 422.41C136.26 422.64 136.83 423.1 137.2 423.79C137.57 424.48 137.64 425.21 137.41 425.97L134.53 435.53L134.5 435.55Z" fill="#888888"/>
<path d="M177.2 327.5C173.79 333.68 169.83 338.42 165.33 341.73C160.83 345.04 155.76 346.76 150.11 346.9C144.46 347.04 138.39 345.45 131.89 342.13C128.87 340.55 125.9 338.96 122.99 337.35C120.08 335.74 117.11 334.06 114.1 332.3C107.9 328.6 103.4 324.3 100.58 319.4C97.7699 314.5 96.5199 309.21 96.8399 303.55C97.1599 297.89 98.9699 292.07 102.27 286.11C105.57 280.14 109.54 275.5 114.18 272.18C118.82 268.86 123.97 267.09 129.62 266.86C135.27 266.63 141.31 268.16 147.74 271.44C150.87 272.99 153.89 274.57 156.8 276.18C159.71 277.79 162.63 279.49 165.53 281.28C171.8 285.02 176.37 289.31 179.26 294.17C182.15 299.03 183.38 304.26 182.95 309.86C182.52 315.47 180.61 321.36 177.19 327.53L177.2 327.5ZM165.23 320.89C167.72 316.38 168.42 311.97 167.32 307.64C166.22 303.32 162.71 299.39 156.79 295.84C153.81 294.01 151.03 292.38 148.42 290.94C145.82 289.5 142.99 288.03 139.93 286.52C135.83 284.44 132.14 283.37 128.86 283.32C125.58 283.27 122.74 284.08 120.32 285.74C117.91 287.4 115.88 289.72 114.23 292.7C112.62 295.61 111.75 298.53 111.63 301.45C111.51 304.37 112.34 307.21 114.13 309.96C115.92 312.71 118.78 315.27 122.73 317.63C125.68 319.35 128.45 320.92 131.05 322.36C133.65 323.8 136.5 325.33 139.59 326.94C145.74 330.07 150.94 330.95 155.18 329.58C159.42 328.21 162.77 325.31 165.22 320.87L165.23 320.89Z" fill="#888888"/>
<path d="M199.48 287.89C198.97 288.5 198.32 288.83 197.54 288.9C196.76 288.97 196.06 288.74 195.46 288.23L136.28 238.33C135.61 237.77 135.25 237.1 135.18 236.31C135.11 235.53 135.34 234.83 135.85 234.23L141.75 227.23C142.46 226.38 143.19 225.93 143.91 225.86C144.64 225.8 145.14 225.78 145.42 225.82L208.22 233.98L168.31 200.33C167.64 199.77 167.26 199.11 167.17 198.36C167.08 197.61 167.31 196.9 167.88 196.23L174.32 188.59C174.88 187.92 175.55 187.56 176.34 187.49C177.12 187.43 177.85 187.67 178.51 188.23L237.6 238.05C238.27 238.61 238.63 239.29 238.7 240.07C238.77 240.85 238.54 241.55 238.03 242.15L232.05 249.24C231.33 250.09 230.61 250.52 229.88 250.52C229.15 250.52 228.65 250.57 228.37 250.65L166.56 243.17L205.65 276.13C206.26 276.64 206.59 277.29 206.66 278.07C206.73 278.85 206.48 279.58 205.92 280.24L199.48 287.88V287.89Z" fill="#888888"/>
<path d="M273.48 213.35C267.78 217.91 262.15 220.79 256.57 222C250.99 223.21 245.61 222.83 240.42 220.84C235.23 218.85 230.46 215.33 226.11 210.28C223.92 207.67 221.6 204.83 219.15 201.77C216.7 198.71 214.42 195.79 212.3 193.01C208.38 187.72 206.05 182.38 205.33 176.97C204.61 171.56 205.48 166.24 207.95 161.02C210.42 155.8 214.44 150.96 220.01 146.5C224.53 142.89 228.97 140.32 233.34 138.8C237.71 137.29 241.78 136.57 245.55 136.65C249.32 136.73 252.64 137.4 255.52 138.65C258.4 139.9 260.61 141.43 262.16 143.24C262.67 143.75 262.88 144.34 262.81 145C262.73 145.67 262.39 146.25 261.77 146.75L252.21 154.4C251.59 154.9 251.03 155.14 250.52 155.14C250.01 155.14 249.44 154.99 248.79 154.69C247.25 153.79 245.45 153.12 243.39 152.69C241.32 152.27 239.05 152.34 236.56 152.9C234.07 153.47 231.4 154.89 228.56 157.17C224.35 160.54 221.88 164.34 221.16 168.57C220.44 172.8 222.04 177.56 225.96 182.85C230.08 188.38 234.44 193.83 239.03 199.19C243.42 204.3 247.82 206.98 252.22 207.21C256.62 207.45 260.93 205.88 265.14 202.51C267.93 200.28 270.02 197.79 271.43 195.05C272.83 192.3 273.33 189.37 272.92 186.25C272.51 183.13 270.99 179.93 268.36 176.65L266.06 173.77L254.73 182.83C254.11 183.33 253.41 183.53 252.63 183.44C251.85 183.36 251.19 182.97 250.64 182.29L246.7 177.37C246.16 176.69 245.93 175.96 246.01 175.18C246.1 174.4 246.45 173.76 247.07 173.27L269.26 155.52C269.94 154.98 270.66 154.76 271.4 154.87C272.15 154.98 272.8 155.38 273.34 156.06L281.14 165.81C285.3 171.01 287.76 176.4 288.52 181.98C289.28 187.56 288.39 193.05 285.85 198.43C283.31 203.81 279.18 208.79 273.49 213.34L273.48 213.35Z" fill="#888888"/>
<path d="M335.83 172.73C329.57 175.99 323.65 177.75 318.07 178.01C312.49 178.28 307.31 176.91 302.53 173.9C297.75 170.89 293.57 166.21 289.99 159.85C288.35 156.86 286.76 153.89 285.22 150.94C283.68 147.99 282.15 144.95 280.61 141.81C277.49 135.3 276.12 129.23 276.49 123.58C276.86 117.94 278.75 112.85 282.15 108.31C285.55 103.77 290.27 99.93 296.32 96.78C302.37 93.63 308.24 91.96 313.95 91.76C319.66 91.56 324.92 92.93 329.76 95.87C334.59 98.81 338.78 103.42 342.32 109.71C344.07 112.73 345.71 115.72 347.25 118.67C348.79 121.62 350.27 124.65 351.7 127.75C354.86 134.33 356.29 140.44 356.01 146.08C355.73 151.72 353.86 156.76 350.4 161.19C346.94 165.62 342.09 169.47 335.83 172.73ZM329.52 160.6C334.09 158.22 337.11 154.93 338.59 150.72C340.06 146.51 339.32 141.3 336.34 135.07C334.87 131.9 333.45 129 332.08 126.36C330.71 123.72 329.16 120.93 327.45 117.98C325.19 113.98 322.7 111.05 320 109.19C317.29 107.34 314.48 106.43 311.55 106.48C308.63 106.53 305.65 107.34 302.63 108.91C299.68 110.45 297.34 112.4 295.62 114.77C293.9 117.14 293.03 119.96 292.99 123.24C292.95 126.52 293.93 130.24 295.91 134.39C297.41 137.45 298.85 140.3 300.22 142.94C301.59 145.58 303.12 148.43 304.8 151.48C308.19 157.49 312.04 161.1 316.33 162.3C320.62 163.51 325.02 162.94 329.52 160.6Z" fill="#888888"/>
<path d="M377.08 152.32C376.32 152.55 375.6 152.49 374.9 152.12C374.21 151.75 373.74 151.19 373.51 150.44L350.58 76.39C350.35 75.63 350.41 74.91 350.78 74.21C351.15 73.52 351.71 73.05 352.46 72.82L363.02 69.55C363.78 69.32 364.5 69.38 365.2 69.75C365.89 70.12 366.36 70.68 366.59 71.43L386.18 134.69L422.18 123.54C423.01 123.28 423.78 123.34 424.47 123.7C425.16 124.07 425.64 124.67 425.9 125.5L428.36 133.45C428.6 134.21 428.53 134.93 428.16 135.63C427.79 136.33 427.19 136.8 426.36 137.06L377.07 152.32H377.08Z" fill="#888888"/>
<path d="M484.22 130.8C476.87 131.33 470.64 130.68 465.54 128.86C460.44 127.04 456.48 124.46 453.66 121.13C450.84 117.8 449.21 114.2 448.77 110.34C448.72 109.63 448.91 109.02 449.35 108.51C449.79 108 450.37 107.72 451.08 107.67L461.63 106.91C462.66 106.84 463.44 107 463.99 107.4C464.53 107.8 465.03 108.3 465.47 108.9C466.05 110.37 467.07 111.79 468.52 113.15C469.97 114.52 471.89 115.59 474.29 116.37C476.69 117.15 479.67 117.41 483.23 117.16C488.92 116.75 493.1 115.5 495.77 113.4C498.44 111.3 499.66 108.63 499.43 105.39C499.27 103.1 498.38 101.31 496.78 100.04C495.18 98.77 492.77 97.67 489.57 96.74C486.36 95.82 482.15 94.91 476.92 94.01C470.89 93.01 465.8 91.65 461.67 89.92C457.53 88.19 454.35 85.86 452.11 82.92C449.87 79.98 448.58 76.14 448.24 71.4C447.91 66.82 448.86 62.65 451.1 58.92C453.34 55.18 456.69 52.12 461.17 49.73C465.65 47.34 471.09 45.92 477.49 45.46C482.63 45.09 487.22 45.46 491.28 46.56C495.33 47.66 498.74 49.24 501.51 51.31C504.28 53.38 506.45 55.65 508.02 58.11C509.59 60.58 510.5 63.04 510.75 65.48C510.79 66.11 510.62 66.7 510.22 67.25C509.82 67.8 509.23 68.1 508.44 68.15L497.41 68.94C496.78 68.99 496.13 68.87 495.48 68.6C494.82 68.33 494.27 67.77 493.81 66.93C493.16 64.51 491.47 62.53 488.73 60.98C486 59.43 482.57 58.8 478.46 59.09C474.19 59.4 470.81 60.43 468.31 62.2C465.81 63.97 464.69 66.51 464.92 69.83C465.08 72.04 465.86 73.84 467.27 75.2C468.68 76.57 470.87 77.7 473.83 78.6C476.79 79.5 480.69 80.41 485.53 81.34C492.36 82.36 497.98 83.71 502.39 85.38C506.8 87.05 510.1 89.34 512.3 92.24C514.49 95.14 515.76 98.93 516.09 103.59C516.46 108.81 515.38 113.36 512.84 117.23C510.3 121.11 506.56 124.22 501.65 126.56C496.73 128.9 490.91 130.31 484.19 130.79L484.22 130.8Z" fill="#888888"/>
<path d="M544.67 129.95C543.88 129.87 543.24 129.53 542.74 128.92C542.24 128.31 542.03 127.62 542.11 126.83L548.57 61.4L526.68 59.24C525.89 59.16 525.25 58.82 524.75 58.21C524.25 57.6 524.04 56.91 524.12 56.12L524.99 47.36C525.07 46.49 525.42 45.81 526.03 45.31C526.64 44.81 527.33 44.6 528.12 44.68L588.47 50.64C589.34 50.72 590.02 51.07 590.52 51.68C591.02 52.29 591.22 53.02 591.14 53.89L590.28 62.65C590.2 63.44 589.86 64.08 589.25 64.58C588.64 65.08 587.91 65.28 587.04 65.2L565.27 63.05L558.81 128.48C558.73 129.27 558.39 129.91 557.78 130.41C557.17 130.91 556.44 131.11 555.57 131.03L544.68 129.95H544.67Z" fill="#888888"/>
<path d="M619.17 145.02C612.55 143.09 607.13 140.29 602.91 136.63C598.69 132.97 595.93 128.41 594.63 122.95C593.33 117.49 593.74 111.11 595.87 103.81L609.41 57.35C609.65 56.51 610.12 55.91 610.81 55.53C611.5 55.15 612.22 55.07 612.98 55.3L623.37 58.33C624.21 58.57 624.79 59.04 625.13 59.71C625.47 60.39 625.52 61.14 625.27 61.98L611.73 108.44C609.91 114.68 610.05 119.74 612.14 123.61C614.23 127.48 617.86 130.17 623.04 131.68C628.21 133.19 632.7 132.87 636.51 130.71C640.31 128.56 643.13 124.36 644.95 118.12L658.48 71.66C658.72 70.82 659.19 70.22 659.88 69.84C660.57 69.46 661.33 69.39 662.17 69.64L672.44 72.63C673.28 72.87 673.86 73.34 674.2 74.01C674.54 74.69 674.59 75.44 674.34 76.28L660.8 122.74C658.67 130.05 655.61 135.66 651.62 139.57C647.63 143.49 642.89 145.86 637.41 146.7C631.92 147.54 625.83 146.98 619.13 145.03L619.17 145.02Z" fill="#888888"/>
<path d="M663.42 158.41C662.72 158.04 662.25 157.48 662.02 156.73C661.78 155.98 661.85 155.26 662.22 154.55L698.15 85.99C698.55 85.22 699.13 84.71 699.88 84.48C700.63 84.25 701.35 84.31 702.06 84.68L727.76 98.15C734.85 101.87 740.12 106.02 743.58 110.61C747.04 115.2 748.82 120.25 748.93 125.76C749.04 131.28 747.51 137.14 744.34 143.36C742.86 146.52 741.5 149.3 740.25 151.68C739 154.07 737.51 156.73 735.79 159.68C732.23 166.14 728.21 170.9 723.74 173.97C719.27 177.04 714.22 178.43 708.61 178.12C703 177.82 696.68 175.83 689.66 172.15L663.44 158.41H663.42ZM681.88 152.65L695.46 159.77C699.39 161.83 702.88 162.94 705.93 163.11C708.97 163.28 711.73 162.42 714.2 160.53C716.66 158.65 719 155.68 721.2 151.65C722.37 149.58 723.39 147.76 724.26 146.2C725.12 144.64 725.95 143.06 726.74 141.46C727.53 139.86 728.43 138.03 729.42 135.95C732.3 130.12 733.08 125.12 731.78 120.94C730.48 116.77 726.84 113.12 720.87 109.99L707.81 103.15L681.87 152.65H681.88Z" fill="#888888"/>
<path d="M729.73 195.42C729.11 194.93 728.75 194.29 728.66 193.51C728.57 192.73 728.77 192.03 729.26 191.41L777.2 130.64C777.74 129.96 778.4 129.57 779.18 129.47C779.96 129.38 780.66 129.58 781.28 130.07L822.35 162.47C823.03 163.01 823.42 163.67 823.52 164.45C823.61 165.23 823.39 165.96 822.85 166.65L817.99 172.81C817.5 173.43 816.86 173.79 816.08 173.88C815.3 173.97 814.57 173.75 813.88 173.21L783.17 148.98L770.13 165.5L798.79 188.11C799.47 188.65 799.87 189.29 799.99 190.04C800.11 190.79 799.89 191.5 799.35 192.19L794.78 197.98C794.24 198.67 793.59 199.04 792.84 199.1C792.08 199.16 791.37 198.92 790.68 198.38L762.02 175.77L748.54 192.85L780 217.67C780.68 218.21 781.07 218.87 781.17 219.65C781.26 220.43 781.04 221.16 780.5 221.85L775.64 228.01C775.15 228.63 774.51 228.99 773.73 229.08C772.95 229.17 772.22 228.95 771.53 228.41L729.71 195.42H729.73Z" fill="#888888"/>
<path d="M781.17 237.38C780.65 236.78 780.41 236.09 780.47 235.31C780.52 234.53 780.85 233.88 781.44 233.35L839.73 182.42C840.39 181.85 841.11 181.59 841.89 181.64C842.67 181.69 843.32 182.02 843.85 182.61L849.87 189.51C850.6 190.34 850.94 191.13 850.89 191.85C850.84 192.58 850.78 193.08 850.7 193.35L833.11 254.18L872.42 219.84C873.08 219.27 873.78 218.99 874.54 219.01C875.3 219.03 875.96 219.37 876.54 220.03L883.11 227.55C883.68 228.21 883.94 228.93 883.89 229.71C883.84 230.49 883.48 231.17 882.83 231.75L824.63 282.6C823.97 283.17 823.25 283.43 822.47 283.38C821.69 283.33 821.03 283 820.51 282.41L814.41 275.43C813.68 274.59 813.37 273.81 813.47 273.09C813.57 272.37 813.61 271.86 813.57 271.58L830.34 211.62L791.84 245.26C791.24 245.78 790.55 246.02 789.77 245.96C788.99 245.91 788.31 245.55 787.73 244.9L781.16 237.38H781.17Z" fill="#888888"/>
<path d="M839.25 312.07C838.85 311.39 838.74 310.67 838.94 309.91C839.13 309.15 839.57 308.57 840.25 308.16L896.81 274.63L885.59 255.71C885.19 255.03 885.08 254.31 885.28 253.55C885.47 252.79 885.91 252.21 886.59 251.8L894.16 247.31C894.91 246.87 895.66 246.74 896.43 246.93C897.19 247.12 897.77 247.56 898.18 248.24L929.1 300.41C929.54 301.16 929.67 301.91 929.48 302.67C929.28 303.43 928.81 304.03 928.06 304.48L920.49 308.97C919.81 309.37 919.09 309.48 918.33 309.28C917.57 309.09 916.97 308.61 916.52 307.86L905.36 289.04L848.8 322.57C848.12 322.97 847.4 323.08 846.64 322.88C845.88 322.69 845.28 322.21 844.83 321.46L839.25 312.05V312.07Z" fill="#888888"/>
<path d="M878.09 401.83C876.1 395.23 875.5 389.16 876.28 383.63C877.06 378.1 879.38 373.3 883.25 369.24C887.12 365.18 892.7 362.05 899.99 359.86L946.33 345.93C947.16 345.68 947.93 345.74 948.62 346.11C949.31 346.48 949.77 347.05 950 347.81L953.12 358.17C953.37 359 953.3 359.75 952.92 360.4C952.54 361.05 951.93 361.51 951.09 361.76L904.75 375.69C898.52 377.56 894.36 380.43 892.25 384.29C890.14 388.15 889.86 392.66 891.42 397.83C892.97 402.99 895.68 406.58 899.56 408.6C903.44 410.62 908.49 410.7 914.71 408.82L961.05 394.89C961.88 394.64 962.65 394.7 963.34 395.07C964.03 395.44 964.5 396.04 964.75 396.88L967.83 407.13C968.08 407.96 968.01 408.71 967.63 409.36C967.25 410.01 966.64 410.47 965.8 410.72L919.46 424.65C912.17 426.84 905.8 427.33 900.34 426.11C894.88 424.9 890.31 422.21 886.62 418.07C882.93 413.92 880.08 408.51 878.08 401.83H878.09Z" fill="#888888"/>
<path d="M890.95 446.23C890.88 445.44 891.09 444.74 891.59 444.14C892.09 443.54 892.74 443.2 893.53 443.12L970.6 435.95C971.47 435.87 972.2 436.08 972.81 436.58C973.41 437.08 973.75 437.73 973.83 438.52L974.68 447.64C974.78 448.74 974.6 449.58 974.14 450.14C973.67 450.7 973.33 451.07 973.11 451.25L923.24 490.28L975.21 485.45C976.08 485.37 976.81 485.56 977.41 486.02C978.01 486.48 978.35 487.15 978.43 488.02L979.35 497.96C979.43 498.83 979.22 499.56 978.72 500.17C978.22 500.77 977.53 501.12 976.67 501.2L899.72 508.36C898.85 508.44 898.11 508.23 897.51 507.73C896.91 507.23 896.57 506.58 896.49 505.79L895.63 496.56C895.53 495.45 895.73 494.64 896.24 494.11C896.75 493.59 897.07 493.2 897.21 492.95L945.91 454.15L895 458.88C894.21 458.95 893.51 458.74 892.91 458.24C892.31 457.74 891.96 457.05 891.88 456.19L890.96 446.25L890.95 446.23Z" fill="#888888"/>
<path d="M895.23 524.36C895.27 523.57 895.57 522.91 896.15 522.38C896.73 521.85 897.42 521.61 898.21 521.64L975.65 525.21C976.44 525.25 977.1 525.55 977.63 526.13C978.16 526.71 978.4 527.4 978.37 528.19L977.86 539.36C977.82 540.23 977.51 540.91 976.93 541.4C976.35 541.89 975.67 542.12 974.88 542.08L897.44 538.51C896.65 538.47 895.99 538.18 895.46 537.64C894.93 537.1 894.68 536.39 894.72 535.52L895.24 524.36H895.23Z" fill="#888888"/>
<path d="M887.69 582.64C888.99 575.7 891.25 569.96 894.48 565.4C897.71 560.84 901.98 557.61 907.3 555.7C912.62 553.79 918.88 553.39 926.09 554.49C929.45 555.04 932.77 555.62 936.05 556.23C939.32 556.84 942.66 557.51 946.08 558.23C953.13 559.79 958.76 562.45 962.97 566.23C967.18 570 970.03 574.63 971.51 580.1C972.98 585.58 973.1 591.67 971.85 598.37C970.6 605.07 968.29 610.73 964.93 615.34C961.57 619.95 957.24 623.26 951.95 625.25C946.66 627.24 940.44 627.7 933.31 626.61C929.85 626.12 926.49 625.58 923.21 624.97C919.94 624.36 916.64 623.66 913.32 622.88C906.19 621.31 900.5 618.67 896.23 614.97C891.96 611.27 889.15 606.69 887.79 601.24C886.43 595.79 886.4 589.59 887.7 582.66L887.69 582.64ZM901.13 585.15C900.18 590.21 900.91 594.62 903.31 598.38C905.71 602.13 910.28 604.76 917.02 606.26C920.42 607.06 923.58 607.73 926.5 608.27C929.42 608.81 932.57 609.32 935.95 609.79C940.5 610.48 944.33 610.33 947.46 609.34C950.59 608.35 953.04 606.69 954.8 604.36C956.57 602.03 957.76 599.19 958.39 595.84C959 592.57 958.91 589.53 958.1 586.71C957.3 583.9 955.61 581.47 953.05 579.42C950.49 577.37 946.96 575.84 942.47 574.84C939.13 574.13 936.01 573.51 933.08 572.96C930.15 572.41 926.98 571.86 923.53 571.3C916.71 570.27 911.5 571.07 907.9 573.7C904.3 576.33 902.04 580.14 901.11 585.13L901.13 585.15Z" fill="#888888"/>
<path d="M879.02 627.18C879.32 626.44 879.82 625.92 880.55 625.61C881.27 625.3 882 625.3 882.74 625.59L954.56 654.46C955.37 654.79 955.93 655.31 956.24 656.03C956.55 656.75 956.55 657.48 956.26 658.22L952.84 666.71C952.43 667.74 951.88 668.4 951.21 668.68C950.54 668.97 950.06 669.14 949.78 669.2L887.58 681.1L936.01 700.57C936.82 700.9 937.39 701.4 937.71 702.09C938.03 702.77 938.03 703.52 937.71 704.33L933.98 713.6C933.65 714.41 933.13 714.97 932.41 715.27C931.69 715.58 930.92 715.57 930.11 715.24L858.4 686.41C857.59 686.08 857.03 685.56 856.72 684.84C856.41 684.12 856.41 683.39 856.7 682.65L860.16 674.05C860.58 673.02 861.13 672.39 861.82 672.15C862.51 671.91 862.97 671.72 863.21 671.56L924.26 659.33L876.82 640.26C876.08 639.96 875.56 639.45 875.25 638.73C874.94 638.01 874.95 637.24 875.28 636.43L879.01 627.16L879.02 627.18Z" fill="#888888"/>
<path d="M215.91 874.19C210.21 869.52 206.13 864.77 203.67 859.95C201.22 855.13 200.11 850.53 200.35 846.17C200.59 841.81 201.88 838.08 204.22 834.97C204.67 834.42 205.23 834.11 205.9 834.04C206.57 833.97 207.18 834.16 207.73 834.62L215.92 841.32C216.72 841.97 217.18 842.63 217.3 843.29C217.42 843.95 217.43 844.66 217.34 845.4C216.75 846.87 216.52 848.59 216.63 850.58C216.74 852.57 217.4 854.67 218.61 856.89C219.82 859.11 221.8 861.35 224.56 863.6C228.98 867.22 232.88 869.18 236.26 869.49C239.64 869.8 242.36 868.7 244.42 866.18C245.88 864.4 246.46 862.5 246.17 860.47C245.88 858.44 244.89 855.99 243.2 853.12C241.5 850.25 239.06 846.69 235.88 842.44C232.18 837.57 229.42 833.09 227.61 828.99C225.79 824.89 225.08 821 225.47 817.33C225.86 813.66 227.57 809.98 230.58 806.3C233.49 802.74 237.04 800.37 241.24 799.19C245.43 798.01 249.97 798.09 254.87 799.43C259.76 800.77 264.7 803.48 269.66 807.54C273.65 810.8 276.73 814.23 278.92 817.81C281.11 821.39 282.5 824.89 283.09 828.29C283.68 831.7 283.7 834.83 283.14 837.71C282.58 840.58 281.55 843 280.06 844.95C279.66 845.44 279.12 845.75 278.46 845.87C277.79 845.99 277.16 845.8 276.54 845.3L267.98 838.3C267.49 837.9 267.1 837.37 266.81 836.73C266.52 836.08 266.5 835.3 266.74 834.37C267.93 832.17 268.06 829.56 267.14 826.56C266.22 823.56 264.16 820.74 260.98 818.14C257.67 815.43 254.5 813.86 251.47 813.43C248.44 813 245.87 814.07 243.76 816.65C242.35 818.37 241.69 820.21 241.78 822.17C241.86 824.13 242.67 826.46 244.21 829.15C245.74 831.84 247.95 835.19 250.83 839.18C255.09 844.61 258.25 849.45 260.31 853.7C262.37 857.95 263.19 861.88 262.8 865.49C262.4 869.11 260.72 872.73 257.76 876.34C254.45 880.39 250.53 882.95 246.02 884.02C241.51 885.09 236.66 884.79 231.48 883.11C226.3 881.43 221.1 878.46 215.89 874.19H215.91Z" fill="#888888"/>
<path d="M261.77 905.95C261.1 905.53 260.67 904.94 260.49 904.18C260.31 903.42 260.43 902.7 260.85 902.02L301.68 836.12C302.1 835.45 302.69 835.02 303.45 834.84C304.21 834.66 304.93 834.78 305.61 835.2L315.11 841.09C315.85 841.55 316.29 842.15 316.44 842.89C316.59 843.63 316.44 844.34 316.03 845.02L275.2 910.92C274.78 911.59 274.21 912.03 273.48 912.23C272.75 912.43 272.01 912.3 271.27 911.84L261.77 905.95Z" fill="#888888"/>
<path d="M297.27 927.45C296.54 927.13 296.04 926.61 295.75 925.87C295.46 925.14 295.48 924.41 295.8 923.69L326.9 852.81C327.25 852.01 327.79 851.47 328.52 851.18C329.25 850.9 329.98 850.91 330.7 851.23L339.08 854.91C340.1 855.36 340.74 855.92 341 856.6C341.26 857.28 341.42 857.76 341.47 858.04L351.42 920.58L372.4 872.78C372.75 871.98 373.27 871.43 373.97 871.13C374.66 870.83 375.41 870.85 376.21 871.2L385.36 875.21C386.16 875.56 386.7 876.1 386.98 876.83C387.26 877.56 387.23 878.33 386.88 879.12L355.82 949.89C355.47 950.69 354.93 951.23 354.2 951.51C353.47 951.8 352.74 951.78 352.02 951.46L343.53 947.73C342.51 947.28 341.9 946.71 341.69 946.01C341.48 945.31 341.29 944.84 341.14 944.6L330.82 883.2L310.27 930.02C309.95 930.75 309.43 931.25 308.7 931.54C307.97 931.83 307.2 931.79 306.41 931.44L297.26 927.43L297.27 927.45Z" fill="#888888"/>
<path d="M411.35 968.94C404.15 967.35 398.33 964.74 393.9 961.13C389.46 957.51 386.44 953.07 384.85 947.81C383.25 942.55 383.03 936.59 384.17 929.94C384.79 926.75 385.51 923.34 386.31 919.7C387.11 916.06 387.92 912.59 388.73 909.28C390.48 902.85 393.21 897.57 396.92 893.43C400.63 889.3 405.26 886.53 410.81 885.11C416.36 883.7 422.69 883.78 429.81 885.35C435.07 886.51 439.64 888.25 443.51 890.57C447.38 892.89 450.52 895.59 452.92 898.68C455.32 901.77 456.98 905.12 457.88 908.73C458.79 912.34 458.86 916.05 458.1 919.86C458.02 920.57 457.68 921.11 457.08 921.46C456.47 921.81 455.82 921.91 455.13 921.76L444.1 919.32C443.25 919.13 442.6 918.77 442.15 918.22C441.7 917.68 441.47 916.87 441.46 915.82C441.35 910.44 439.99 906.48 437.38 903.96C434.77 901.44 431.22 899.68 426.73 898.68C421.54 897.53 417.08 898.07 413.35 900.29C409.61 902.51 406.89 906.92 405.19 913.53C403.56 919.83 402.12 926.33 400.88 933.03C399.64 939.74 400.25 944.88 402.7 948.47C405.15 952.06 408.97 954.42 414.16 955.57C418.65 956.56 422.61 956.45 426.05 955.21C429.49 953.98 432.38 950.99 434.73 946.23C435.2 945.2 435.75 944.55 436.38 944.28C437.01 944.01 437.75 943.97 438.6 944.16L449.63 946.6C450.33 946.75 450.87 947.12 451.28 947.69C451.68 948.27 451.76 948.89 451.53 949.57C450.61 953.35 448.99 956.68 446.64 959.57C444.29 962.46 441.38 964.8 437.9 966.59C434.42 968.38 430.44 969.51 425.95 969.98C421.46 970.45 416.59 970.1 411.32 968.94H411.35Z" fill="#888888"/>
<path d="M470.49 977.45C469.7 977.42 469.03 977.12 468.5 976.55C467.96 975.98 467.71 975.29 467.74 974.5L470.46 897.14C470.49 896.27 470.79 895.57 471.37 895.03C471.94 894.5 472.63 894.24 473.42 894.27L525.7 896.11C526.57 896.14 527.27 896.44 527.81 897.02C528.34 897.59 528.6 898.32 528.57 899.19L528.29 907.03C528.26 907.82 527.96 908.49 527.39 909.02C526.81 909.56 526.09 909.81 525.22 909.78L486.13 908.4L485.39 929.43L521.87 930.71C522.74 930.74 523.44 931.02 523.98 931.56C524.52 932.1 524.77 932.8 524.74 933.67L524.48 941.04C524.45 941.91 524.15 942.59 523.57 943.09C523 943.59 522.28 943.82 521.4 943.79L484.92 942.51L484.16 964.26L524.2 965.67C525.07 965.7 525.77 966 526.31 966.58C526.84 967.16 527.1 967.88 527.07 968.75L526.79 976.59C526.76 977.38 526.46 978.05 525.89 978.58C525.31 979.12 524.59 979.37 523.72 979.34L470.49 977.47V977.45Z" fill="#888888"/>
<path d="M577.49 974.94C576.71 975.1 576 974.96 575.34 974.53C574.69 974.1 574.28 973.49 574.12 972.72L572.91 966.78C572.77 966.08 572.77 965.21 572.92 964.17C573.07 963.13 573.67 961.98 574.7 960.71L589.39 938.67C593.69 933.59 597.13 929.31 599.7 925.83C602.27 922.36 604.03 919.29 604.99 916.62C605.95 913.96 606.19 911.46 605.71 909.13C605 905.63 603.47 902.99 601.12 901.21C598.77 899.42 595.54 898.95 591.43 899.79C588.71 900.34 586.53 901.37 584.9 902.88C583.26 904.39 582.11 906.18 581.44 908.25C580.77 910.33 580.47 912.53 580.54 914.86C580.59 915.9 580.31 916.69 579.69 917.22C579.07 917.75 578.41 918.09 577.71 918.23L567.34 920.34C566.64 920.48 566.01 920.37 565.45 920C564.89 919.63 564.55 919.13 564.42 918.51C563.82 915.16 563.86 911.77 564.54 908.35C565.22 904.93 566.57 901.75 568.6 898.79C570.62 895.83 573.31 893.24 576.66 891.02C580.01 888.8 583.98 887.23 588.56 886.29C595.01 884.98 600.57 884.98 605.24 886.29C609.91 887.6 613.7 889.91 616.6 893.2C619.49 896.49 621.42 900.47 622.37 905.13C623.11 908.78 623.1 912.28 622.32 915.63C621.55 918.98 620.13 922.35 618.06 925.72C616 929.09 613.4 932.64 610.27 936.34L597.14 956.48L630.35 949.72C631.2 949.55 631.93 949.66 632.54 950.06C633.15 950.46 633.54 951.09 633.71 951.94L635.39 960.21C635.55 960.99 635.43 961.7 635.04 962.34C634.64 962.99 634.02 963.4 633.17 963.57L577.48 974.9L577.49 974.94Z" fill="#888888"/>
<path d="M685.64 946.51C680.41 948.6 675.65 949.61 671.36 949.54C667.06 949.47 663.19 948.54 659.75 946.76C656.3 944.98 653.28 942.54 650.67 939.44C648.06 936.34 645.84 932.81 644 928.85C643.13 926.89 642.2 924.73 641.21 922.35C640.22 919.97 639.25 917.56 638.32 915.12C637.38 912.68 636.54 910.41 635.79 908.32C634.32 904.21 633.49 900.13 633.32 896.06C633.14 891.99 633.72 888.15 635.05 884.55C636.38 880.94 638.58 877.63 641.64 874.61C644.7 871.59 648.77 869.07 653.85 867.04C659 864.98 663.73 863.99 668.02 864.06C672.32 864.13 676.19 865.02 679.64 866.71C683.09 868.4 686.14 870.79 688.78 873.87C691.42 876.95 693.63 880.49 695.39 884.48C696.36 886.48 697.33 888.7 698.31 891.13C699.29 893.56 700.25 895.97 701.2 898.36C702.16 900.75 702.96 902.97 703.61 905.02C705.08 909.13 705.94 913.2 706.19 917.24C706.44 921.28 705.93 925.14 704.67 928.8C703.4 932.47 701.22 935.81 698.12 938.85C695.02 941.88 690.86 944.44 685.63 946.53L685.64 946.51ZM680.56 933.82C685.34 931.91 688.23 928.94 689.23 924.91C690.22 920.88 689.68 916.17 687.61 910.77C686.9 908.58 686.12 906.39 685.25 904.22C684.38 902.05 683.5 899.86 682.62 897.65C681.74 895.44 680.82 893.37 679.88 891.45C677.72 886.25 674.87 882.5 671.35 880.2C667.82 877.9 663.67 877.7 658.89 879.62C654.18 881.5 651.34 884.5 650.38 888.6C649.42 892.7 649.91 897.39 651.85 902.68C652.64 904.67 653.47 906.77 654.31 908.99C655.16 911.21 656.03 913.4 656.94 915.56C657.85 917.72 658.73 919.86 659.58 922C661.88 927.31 664.79 931.08 668.32 933.29C671.85 935.51 675.94 935.68 680.57 933.83L680.56 933.82Z" fill="#888888"/>
<path d="M755.4 910.21C754.65 910.66 753.91 910.77 753.19 910.56C752.46 910.35 751.9 909.9 751.49 909.22L719.94 856.33L711.55 877.54C711.18 878.31 710.66 878.83 709.99 879.1C709.32 879.36 708.56 879.33 707.72 879L700.14 876.04C699.37 875.67 698.83 875.12 698.52 874.37C698.22 873.63 698.25 872.87 698.62 872.1L710.95 840.79C711.16 840.21 711.44 839.76 711.81 839.45C712.18 839.14 712.6 838.84 713.08 838.56L722.07 833.2C722.75 832.79 723.47 832.69 724.23 832.88C724.99 833.07 725.57 833.51 725.98 834.19L765.7 900.77C766.11 901.45 766.21 902.17 766.02 902.93C765.83 903.69 765.39 904.28 764.71 904.68L755.42 910.22L755.4 910.21Z" fill="#888888"/>
<path d="M808.92 873.66C803.66 877.99 798.5 880.78 793.46 882C788.41 883.23 783.8 883.21 779.61 881.93C775.43 880.65 771.96 878.47 769.22 875.39C768.71 874.89 768.51 874.31 768.63 873.64C768.75 872.98 769.09 872.42 769.64 871.96L778.18 864.93C778.85 864.38 779.53 864.05 780.22 863.94C780.91 863.83 781.65 864.02 782.45 864.49C784.57 865.82 786.68 866.61 788.77 866.83C790.86 867.06 792.88 866.83 794.83 866.15C796.78 865.47 798.58 864.44 800.24 863.08C802.44 861.27 804.08 859.17 805.16 856.8C806.23 854.43 806.59 851.9 806.23 849.22C805.87 846.54 804.63 843.91 802.52 841.34C800.66 839.08 798.52 837.55 796.12 836.75C793.72 835.96 791.23 835.83 788.64 836.36C786.05 836.9 783.6 838.12 781.27 840.04C779.56 841.45 778.33 842.83 777.58 844.16C776.83 845.5 776.3 846.75 775.99 847.93C775.68 849.11 775.41 850.16 775.18 851.06C774.95 851.97 774.47 852.72 773.74 853.33L765.3 860.28C764.75 860.73 764.11 860.93 763.39 860.86C762.66 860.79 762.08 860.48 761.62 859.93L738.98 825.89C738.39 825.05 738.16 824.21 738.29 823.37C738.43 822.54 738.83 821.85 739.5 821.29L774.01 792.87C774.62 792.37 775.32 792.15 776.1 792.23C776.88 792.31 777.52 792.65 778.03 793.26L783.09 799.41C783.59 800.02 783.81 800.72 783.73 801.5C783.65 802.28 783.31 802.92 782.7 803.43L756.17 825.27L767.02 841.44C767.52 839.8 768.41 837.89 769.69 835.7C770.97 833.52 773.23 831.09 776.48 828.42C779.42 826 782.61 824.17 786.05 822.93C789.49 821.69 793 821.11 796.56 821.2C800.13 821.29 803.55 822.12 806.84 823.67C810.13 825.23 813.1 827.63 815.77 830.87C819.45 835.34 821.61 840.08 822.25 845.1C822.89 850.12 822.1 855.08 819.88 859.99C817.66 864.9 814.01 869.45 808.93 873.63L808.92 873.66Z" fill="#888888"/>
<path d="M180.8 777.73C173.06 783.49 163.88 781.55 158.73 774.65C153.59 767.74 154.36 758.39 162.1 752.62C169.77 746.91 179.02 748.8 184.17 755.7C189.32 762.6 188.47 772.01 180.8 777.73Z" fill="#888888"/>
<path d="M861.9 752.62C869.64 758.38 870.41 767.74 865.27 774.65C860.13 781.56 850.94 783.5 843.2 777.73C835.53 772.02 834.69 762.61 839.83 755.7C844.97 748.79 854.23 746.91 861.9 752.62Z" fill="#888888"/>
<path d="M232.89 431.23H232.87C229.264 431.23 226.34 434.154 226.34 437.76V584.64C226.34 588.246 229.264 591.17 232.87 591.17H232.89C236.496 591.17 239.42 588.246 239.42 584.64V437.76C239.42 434.154 236.496 431.23 232.89 431.23Z" fill="#888888"/>
<path d="M288.72 460.72H288.7C285.094 460.72 282.17 463.644 282.17 467.25V555.15C282.17 558.756 285.094 561.68 288.7 561.68H288.72C292.326 561.68 295.25 558.756 295.25 555.15V467.25C295.25 463.644 292.326 460.72 288.72 460.72Z" fill="#888888"/>
<path d="M735.31 460.72H735.29C731.684 460.72 728.76 463.644 728.76 467.25V555.15C728.76 558.756 731.684 561.68 735.29 561.68H735.31C738.916 561.68 741.84 558.756 741.84 555.15V467.25C741.84 463.644 738.916 460.72 735.31 460.72Z" fill="#888888"/>
<path d="M791.14 431.23H791.12C787.514 431.23 784.59 434.154 784.59 437.76V584.64C784.59 588.246 787.514 591.17 791.12 591.17H791.14C794.746 591.17 797.67 588.246 797.67 584.64V437.76C797.67 434.154 794.746 431.23 791.14 431.23Z" fill="#888888"/>
<path d="M456.19 442.48H456.17C452.564 442.48 449.64 445.404 449.64 449.01V573.4C449.64 577.006 452.564 579.93 456.17 579.93H456.19C459.796 579.93 462.72 577.006 462.72 573.4V449.01C462.72 445.404 459.796 442.48 456.19 442.48Z" fill="#888888"/>
<path d="M567.84 442.48H567.82C564.214 442.48 561.29 445.404 561.29 449.01V573.4C561.29 577.006 564.214 579.93 567.82 579.93H567.84C571.447 579.93 574.37 577.006 574.37 573.4V449.01C574.37 445.404 571.447 442.48 567.84 442.48Z" fill="#888888"/>
<path d="M512.02 429.29H512C508.394 429.29 505.47 432.214 505.47 435.82V586.59C505.47 590.196 508.394 593.12 512 593.12H512.02C515.626 593.12 518.55 590.196 518.55 586.59V435.82C518.55 432.214 515.626 429.29 512.02 429.29Z" fill="#888888"/>
<path d="M400.36 494.94H400.34C396.734 494.94 393.81 497.864 393.81 501.47V520.92C393.81 524.526 396.734 527.45 400.34 527.45H400.36C403.966 527.45 406.89 524.526 406.89 520.92V501.47C406.89 497.864 403.966 494.94 400.36 494.94Z" fill="#888888"/>
<path d="M623.66 494.94H623.64C620.034 494.94 617.11 497.864 617.11 501.47V520.92C617.11 524.526 620.034 527.45 623.64 527.45H623.66C627.266 527.45 630.19 524.526 630.19 520.92V501.47C630.19 497.864 627.266 494.94 623.66 494.94Z" fill="#888888"/>
<path d="M354.68 484.08C350.56 489.53 346.53 495 342.51 500.44C340.81 502.75 339.11 505.05 337.42 507.33C305.61 464.83 273.04 427.16 217.04 422.21C209.87 421.58 204.33 415.65 204.33 408.45V408.25C204.33 400.15 211.28 393.8 219.35 394.5C250.92 397.23 278.88 408.77 304.43 429.55C323.53 445.07 339.61 464.3 354.67 484.07L354.68 484.08Z" fill="#888888"/>
<path d="M819.67 408.27V408.47C819.67 415.67 814.13 421.6 806.96 422.23C750.96 427.18 718.39 464.85 686.58 507.36C685.43 508.91 684.27 510.46 683.12 512.02C681.08 514.76 679.05 517.51 677.01 520.27C673.32 525.27 669.6 530.31 665.83 535.33C664.68 536.87 663.51 538.41 662.34 539.94C647.28 559.71 631.2 578.94 612.1 594.46C582.57 618.46 549.82 630.14 512 630.14C474.18 630.14 441.43 618.47 411.9 594.46C392.81 578.94 376.72 559.71 361.66 539.94C365.77 534.49 369.81 529.02 373.83 523.58C375.53 521.27 377.23 518.97 378.93 516.69C413.07 562.31 448.09 602.36 512.01 602.36C575.93 602.36 610.95 562.32 645.09 516.69C646.25 515.14 647.4 513.59 648.57 512.03C650.6 509.29 652.64 506.54 654.67 503.78C658.36 498.78 662.08 493.74 665.85 488.72C667 487.18 668.17 485.64 669.34 484.11C684.4 464.34 700.49 445.11 719.58 429.59C745.13 408.8 773.09 397.27 804.67 394.53C812.74 393.83 819.68 400.18 819.68 408.28L819.67 408.27Z" fill="#888888"/>
<path d="M662.34 484.08C658.23 489.53 654.19 495 650.17 500.44C648.47 502.75 646.77 505.05 645.07 507.33C610.93 461.71 575.91 421.66 511.99 421.66C448.07 421.66 413.05 461.71 378.91 507.33C377.75 508.88 376.59 510.44 375.43 511.99C373.39 514.73 371.36 517.48 369.33 520.24C365.64 525.24 361.92 530.28 358.15 535.3C357 536.84 355.83 538.38 354.66 539.91C339.6 559.68 323.52 578.91 304.42 594.43C278.87 615.2 250.91 626.74 219.34 629.48C211.27 630.18 204.32 623.83 204.32 615.72V615.52C204.32 608.32 209.86 602.39 217.03 601.76C273.03 596.81 305.6 559.15 337.41 516.65C338.56 515.11 339.72 513.55 340.87 511.99C342.91 509.25 344.94 506.5 346.97 503.74C350.66 498.74 354.38 493.7 358.15 488.68C359.3 487.14 360.47 485.6 361.64 484.07C376.7 464.29 392.79 445.07 411.88 429.55C441.42 405.54 474.16 393.87 511.99 393.87C549.82 393.87 582.56 405.54 612.09 429.55C631.19 445.07 647.27 464.3 662.33 484.07L662.34 484.08Z" fill="#888888"/>
<path d="M819.67 615.53V615.73C819.67 623.83 812.72 630.18 804.66 629.49C773.08 626.75 745.13 615.22 719.57 594.44C700.48 578.92 684.39 559.69 669.33 539.92C673.44 534.47 677.48 529 681.5 523.56C683.2 521.25 684.9 518.96 686.59 516.67C718.4 559.17 750.97 596.83 806.97 601.78C814.14 602.41 819.68 608.34 819.68 615.54L819.67 615.53Z" fill="#888888"/>
</svg>
